<svg width="16" height="16" viewBox="0 0 16 16" fill="none" xmlns="http://www.w3.org/2000/svg">
<rect width="16" height="16" fill="#292929"/>
<path d="M5.62521 9.28698C5.54788 9.53831 5.50921 9.88631 5.50921 10.331C5.50921 10.7756 5.71221 11.3266 6.11821 11.984C6.54354 12.622 7.01721 13.0763 7.53921 13.347C7.92588 12.999 8.26421 12.5736 8.55421 12.071C8.84421 11.5683 8.98921 11.0946 8.98921 10.65C8.98921 10.1473 8.01288 9.41265 6.06021 8.44598C5.32554 8.07865 4.64888 7.62431 4.03021 7.08298C3.43088 6.52231 3.13121 5.95198 3.13121 5.37198C3.13121 4.79198 3.50821 4.13465 4.26221 3.39998C5.65421 2.02731 7.25888 1.01231 9.07621 0.35498C9.98488 0.64498 10.7872 0.78998 11.4832 0.78998C12.1792 0.78998 12.6529 0.702979 12.9042 0.528979L13.1942 0.847979C12.3049 1.89198 11.6669 2.99398 11.2802 4.15398L10.9902 4.24098L10.2362 3.68998C9.90754 3.43865 9.47254 3.16798 8.93121 2.87798C8.38988 2.56865 7.94521 2.38498 7.59721 2.32698C7.09454 2.65565 6.84321 3.05198 6.84321 3.51598C6.84321 4.01865 7.76154 4.70498 9.59821 5.57498C10.2942 5.90365 10.9225 6.32898 11.4832 6.85098C12.0632 7.35365 12.3532 7.86598 12.3532 8.38798C12.3532 9.56731 11.7829 10.8143 10.6422 12.129C9.50154 13.4243 8.25454 14.5263 6.90121 15.435C6.05054 15.3576 5.19021 15.087 4.32021 14.623C3.45021 14.1396 2.80254 13.608 2.37721 13.028L2.11621 12.68C3.56621 11.3846 4.60054 10.1763 5.21921 9.05498L5.62521 9.28698Z" fill="white"/>
</svg>
