<svg width="6" height="10" viewBox="0 0 6 10" fill="none" xmlns="http://www.w3.org/2000/svg">
<rect width="6" height="10" fill="#666666"/>
<path d="M3 0L6 10H0L3 0Z" fill="url(#paint0_linear)"/>
<path d="M1.55387 9V7.8H1.65287V8.352H1.84487V7.8H1.94387V9H1.84487V8.4405H1.65287V9H1.55387ZM2.10318 9V7.8H2.44068V7.89H2.20218V8.352H2.42568V8.4405H2.20218V8.91H2.44068V9H2.10318ZM2.55435 9V7.8H2.73585C2.80385 7.8 2.85335 7.815 2.88435 7.845C2.91535 7.875 2.93185 7.9245 2.93385 7.9935C2.93685 8.0605 2.93835 8.1225 2.93835 8.1795C2.93835 8.2365 2.93685 8.2925 2.93385 8.3475C2.93085 8.4425 2.89835 8.5015 2.83635 8.5245L2.95785 9H2.85135L2.74185 8.5425H2.65335V9H2.55435ZM2.65335 8.4525H2.73585C2.76985 8.4525 2.79435 8.4445 2.80935 8.4285C2.82535 8.4125 2.83385 8.387 2.83485 8.352C2.83985 8.231 2.83985 8.11 2.83485 7.989C2.83385 7.955 2.82535 7.93 2.80935 7.914C2.79435 7.898 2.76985 7.89 2.73585 7.89H2.65335V8.4525ZM3.06705 9V7.8H3.25905L3.32355 8.292L3.37905 8.9055H3.40605L3.46155 8.292L3.52605 7.8H3.71805V9H3.61905V8.6445L3.63405 7.89H3.60255L3.51855 8.655L3.46905 8.9955H3.31605L3.26655 8.655L3.18255 7.89H3.15105L3.16755 8.652V9H3.06705ZM3.87711 9V7.8H3.97611V9H3.87711ZM4.23277 9V7.89H4.07977V7.8H4.48477V7.89H4.33327V9H4.23277Z" fill="#292929"/>
<defs>
<linearGradient id="paint0_linear" x1="3" y1="10" x2="3" y2="9.51253e-08" gradientUnits="userSpaceOnUse">
<stop stop-color="white" stop-opacity="0"/>
<stop offset="1" stop-color="white"/>
</linearGradient>
</defs>
</svg>
