<svg width="6" height="10" viewBox="0 0 6 10" fill="none" xmlns="http://www.w3.org/2000/svg">
<rect width="6" height="10" fill="#666666"/>
<path d="M3 0L6 10H0L3 0Z" fill="url(#paint0_linear)"/>
<path d="M2.07242 9V7.8H2.40992V7.89H2.17142V8.352H2.39492V8.4405H2.17142V9H2.07242ZM2.72899 9.0105C2.65999 9.0105 2.60999 8.9955 2.57899 8.9655C2.54899 8.9355 2.53349 8.8855 2.53249 8.8155C2.52949 8.6725 2.52799 8.5345 2.52799 8.4015C2.52799 8.2675 2.52949 8.1285 2.53249 7.9845C2.53349 7.9145 2.54899 7.8645 2.57899 7.8345C2.60999 7.8045 2.65999 7.7895 2.72899 7.7895C2.79899 7.7895 2.84899 7.8045 2.87899 7.8345C2.90899 7.8645 2.92499 7.9145 2.92699 7.9845C2.92899 8.1285 2.92999 8.2675 2.92999 8.4015C2.92999 8.5345 2.92899 8.6725 2.92699 8.8155C2.92499 8.8855 2.90899 8.9355 2.87899 8.9655C2.84899 8.9955 2.79899 9.0105 2.72899 9.0105ZM2.72899 8.925C2.76399 8.925 2.78899 8.918 2.80399 8.904C2.81899 8.89 2.82649 8.8655 2.82649 8.8305C2.83149 8.6835 2.83349 8.539 2.83249 8.397C2.83249 8.255 2.83049 8.1125 2.82649 7.9695C2.82649 7.9345 2.81899 7.91 2.80399 7.896C2.78899 7.882 2.76399 7.875 2.72899 7.875C2.69499 7.875 2.67049 7.882 2.65549 7.896C2.64049 7.91 2.63249 7.9345 2.63149 7.9695C2.62749 8.1125 2.62549 8.255 2.62549 8.397C2.62549 8.539 2.62749 8.6835 2.63149 8.8305C2.63249 8.8655 2.64049 8.89 2.65549 8.904C2.67049 8.918 2.69499 8.925 2.72899 8.925ZM3.27977 9.0105C3.21077 9.0105 3.16077 8.9955 3.12977 8.9655C3.09977 8.9355 3.08427 8.8855 3.08327 8.8155C3.08027 8.6725 3.07877 8.5345 3.07877 8.4015C3.07877 8.2675 3.08027 8.1285 3.08327 7.9845C3.08427 7.9145 3.09977 7.8645 3.12977 7.8345C3.16077 7.8045 3.21077 7.7895 3.27977 7.7895C3.34977 7.7895 3.39977 7.8045 3.42977 7.8345C3.45977 7.8645 3.47577 7.9145 3.47777 7.9845C3.47977 8.1285 3.48077 8.2675 3.48077 8.4015C3.48077 8.5345 3.47977 8.6725 3.47777 8.8155C3.47577 8.8855 3.45977 8.9355 3.42977 8.9655C3.39977 8.9955 3.34977 9.0105 3.27977 9.0105ZM3.27977 8.925C3.31477 8.925 3.33977 8.918 3.35477 8.904C3.36977 8.89 3.37727 8.8655 3.37727 8.8305C3.38227 8.6835 3.38427 8.539 3.38327 8.397C3.38327 8.255 3.38127 8.1125 3.37727 7.9695C3.37727 7.9345 3.36977 7.91 3.35477 7.896C3.33977 7.882 3.31477 7.875 3.27977 7.875C3.24577 7.875 3.22127 7.882 3.20627 7.896C3.19127 7.91 3.18327 7.9345 3.18227 7.9695C3.17827 8.1125 3.17627 8.255 3.17627 8.397C3.17627 8.539 3.17827 8.6835 3.18227 8.8305C3.18327 8.8655 3.19127 8.89 3.20627 8.904C3.22127 8.918 3.24577 8.925 3.27977 8.925ZM3.62955 9V7.8H3.72855V8.91H3.96855V9H3.62955Z" fill="#292929"/>
<defs>
<linearGradient id="paint0_linear" x1="3" y1="10" x2="3" y2="9.51253e-08" gradientUnits="userSpaceOnUse">
<stop stop-color="white" stop-opacity="0"/>
<stop offset="1" stop-color="white"/>
</linearGradient>
</defs>
</svg>
