<svg width="6" height="10" viewBox="0 0 6 10" fill="none" xmlns="http://www.w3.org/2000/svg">
<rect width="6" height="10" fill="#140507"/>
<path d="M3 3.25L3.39556 4.77163L4.51554 5.875L3 5.45675L1.48446 5.875L2.60444 4.77163L3 3.25Z" fill="#292929"/>
<path d="M4.25 3.5L4.31525 3.88698L4.68301 3.75L4.3805 4L4.68301 4.25L4.31525 4.11302L4.25 4.5L4.18475 4.11302L3.81699 4.25L4.1195 4L3.81699 3.75L4.18475 3.88698L4.25 3.5Z" fill="white"/>
<path d="M3 6L3.06525 6.38698L3.43301 6.25L3.1305 6.5L3.43301 6.75L3.06525 6.61302L3 7L2.93475 6.61302L2.56699 6.75L2.8695 6.5L2.56699 6.25L2.93475 6.38698L3 6Z" fill="white"/>
<path d="M1.75 3.5L1.81525 3.88698L2.18301 3.75L1.8805 4L2.18301 4.25L1.81525 4.11302L1.75 4.5L1.68475 4.11302L1.31699 4.25L1.6195 4L1.31699 3.75L1.68475 3.88698L1.75 3.5Z" fill="white"/>
</svg>
