<svg width="6" height="10" viewBox="0 0 6 10" fill="none" xmlns="http://www.w3.org/2000/svg">
<rect width="6" height="10" fill="#666666"/>
<path d="M3 0L6 10H0L3 0Z" fill="url(#paint0_linear)"/>
<path d="M2.29979 9.0105C2.23079 9.0105 2.18129 8.9955 2.15129 8.9655C2.12129 8.9345 2.10479 8.8835 2.10179 8.8125C2.10079 8.7665 2.10029 8.726 2.10029 8.691C2.10029 8.655 2.10179 8.6135 2.10479 8.5665H2.19929C2.19729 8.6105 2.19629 8.6545 2.19629 8.6985C2.19629 8.7425 2.19729 8.7855 2.19929 8.8275C2.20129 8.8615 2.20979 8.8865 2.22479 8.9025C2.23979 8.9175 2.26479 8.925 2.29979 8.925C2.33279 8.925 2.35629 8.9175 2.37029 8.9025C2.38529 8.8865 2.39379 8.8615 2.39579 8.8275C2.39779 8.7995 2.39879 8.7745 2.39879 8.7525C2.39879 8.7305 2.39829 8.708 2.39729 8.685C2.39729 8.661 2.39679 8.6335 2.39579 8.6025C2.39479 8.5645 2.38929 8.533 2.37929 8.508C2.37029 8.483 2.35179 8.467 2.32379 8.46L2.24429 8.439C2.18629 8.425 2.14829 8.3995 2.13029 8.3625C2.11229 8.3255 2.10229 8.2725 2.10029 8.2035C2.09929 8.1705 2.09879 8.135 2.09879 8.097C2.09979 8.059 2.10079 8.022 2.10179 7.986C2.10279 7.916 2.11829 7.866 2.14829 7.836C2.17829 7.805 2.22879 7.7895 2.29979 7.7895C2.36579 7.7895 2.41329 7.805 2.44229 7.836C2.47229 7.866 2.48879 7.916 2.49179 7.986C2.49179 8.014 2.49179 8.0485 2.49179 8.0895C2.49179 8.1295 2.49129 8.1715 2.49029 8.2155H2.39429C2.39529 8.1755 2.39579 8.135 2.39579 8.094C2.39579 8.053 2.39529 8.012 2.39429 7.971C2.39229 7.907 2.36029 7.875 2.29829 7.875C2.26429 7.875 2.23979 7.883 2.22479 7.899C2.21079 7.914 2.20279 7.938 2.20079 7.971C2.19879 8.01 2.19779 8.049 2.19779 8.088C2.19779 8.126 2.19879 8.1645 2.20079 8.2035C2.20179 8.2485 2.20679 8.282 2.21579 8.304C2.22579 8.326 2.24579 8.341 2.27579 8.349L2.34929 8.367C2.40829 8.381 2.44679 8.407 2.46479 8.445C2.48379 8.483 2.49429 8.5355 2.49629 8.6025C2.49729 8.6335 2.49779 8.6595 2.49779 8.6805C2.49779 8.7015 2.49729 8.722 2.49629 8.742C2.49629 8.762 2.49629 8.7855 2.49629 8.8125C2.49329 8.8835 2.47679 8.9345 2.44679 8.9655C2.41679 8.9955 2.36779 9.0105 2.29979 9.0105ZM2.73131 9V7.89H2.57831V7.8H2.98331V7.89H2.83181V9H2.73131ZM2.99725 9L3.12625 7.8H3.31225L3.43975 9H3.33775L3.30625 8.652H3.13075L3.09925 9H2.99725ZM3.13975 8.562H3.29725L3.27325 8.2995L3.24025 7.89H3.19825L3.16375 8.301L3.13975 8.562ZM3.53873 9V7.8H3.72023C3.78823 7.8 3.83773 7.815 3.86873 7.845C3.89973 7.875 3.91623 7.9245 3.91823 7.9935C3.92123 8.0605 3.92273 8.1225 3.92273 8.1795C3.92273 8.2365 3.92123 8.2925 3.91823 8.3475C3.91523 8.4425 3.88273 8.5015 3.82073 8.5245L3.94223 9H3.83573L3.72623 8.5425H3.63773V9H3.53873ZM3.63773 8.4525H3.72023C3.75423 8.4525 3.77873 8.4445 3.79373 8.4285C3.80973 8.4125 3.81823 8.387 3.81923 8.352C3.82423 8.231 3.82423 8.11 3.81923 7.989C3.81823 7.955 3.80973 7.93 3.79373 7.914C3.77873 7.898 3.75423 7.89 3.72023 7.89H3.63773V8.4525Z" fill="#292929"/>
<defs>
<linearGradient id="paint0_linear" x1="3" y1="10" x2="3" y2="9.51253e-08" gradientUnits="userSpaceOnUse">
<stop stop-color="white" stop-opacity="0"/>
<stop offset="1" stop-color="white"/>
</linearGradient>
</defs>
</svg>
