<svg width="6" height="10" viewBox="0 0 6 10" fill="none" xmlns="http://www.w3.org/2000/svg">
<rect width="6" height="10" fill="#666666"/>
<path d="M3 0L6 10H0L3 0Z" fill="url(#paint0_linear)"/>
<path d="M0.780492 9.0105C0.710492 9.0105 0.661492 8.9955 0.633492 8.9655C0.605492 8.9345 0.590492 8.8835 0.588492 8.8125C0.586492 8.7305 0.586492 8.6485 0.588492 8.5665H0.682992C0.679992 8.6535 0.679992 8.7405 0.682992 8.8275C0.683992 8.8615 0.691492 8.8865 0.705492 8.9025C0.720492 8.9175 0.745492 8.925 0.780492 8.925C0.813492 8.925 0.836992 8.9175 0.850992 8.9025C0.865992 8.8865 0.873492 8.8615 0.873492 8.8275V7.8H0.972492V8.8125C0.972492 8.8835 0.957492 8.9345 0.927492 8.9655C0.898492 8.9955 0.849492 9.0105 0.780492 9.0105ZM1.319 9.0105C1.25 9.0105 1.2 8.9955 1.169 8.9655C1.139 8.9355 1.1235 8.8855 1.1225 8.8155C1.1195 8.4775 1.1195 8.139 1.1225 7.8H1.223C1.221 7.969 1.2195 8.141 1.2185 8.316C1.2185 8.49 1.2195 8.6615 1.2215 8.8305C1.2215 8.8935 1.254 8.925 1.319 8.925C1.383 8.925 1.415 8.8935 1.415 8.8305C1.416 8.6615 1.4165 8.49 1.4165 8.316C1.4175 8.141 1.417 7.969 1.415 7.8H1.514C1.517 8.139 1.517 8.4775 1.514 8.8155C1.513 8.8855 1.4975 8.9355 1.4675 8.9655C1.4375 8.9955 1.388 9.0105 1.319 9.0105ZM1.67471 9V7.8H1.86671C1.93571 7.8 1.98521 7.8155 2.01521 7.8465C2.04621 7.8775 2.06271 7.9285 2.06471 7.9995C2.06571 8.0945 2.06621 8.185 2.06621 8.271C2.06721 8.357 2.06721 8.443 2.06621 8.529C2.06621 8.614 2.06571 8.7045 2.06471 8.8005C2.06271 8.8715 2.04621 8.9225 2.01521 8.9535C1.98421 8.9845 1.93421 9 1.86521 9H1.67471ZM1.77371 8.91H1.86521C1.89921 8.91 1.92371 8.902 1.93871 8.886C1.95471 8.87 1.96321 8.8445 1.96421 8.8095C1.96821 8.5365 1.96821 8.263 1.96421 7.989C1.96321 7.955 1.95471 7.93 1.93871 7.914C1.92371 7.898 1.89971 7.89 1.86671 7.89H1.77371V8.91ZM2.41474 9.0105C2.34574 9.0105 2.29624 8.9955 2.26624 8.9655C2.23624 8.9345 2.22024 8.8835 2.21824 8.8125C2.21324 8.5375 2.21324 8.264 2.21824 7.992C2.22024 7.919 2.23624 7.867 2.26624 7.836C2.29624 7.805 2.34574 7.7895 2.41474 7.7895C2.48074 7.7895 2.52874 7.805 2.55874 7.836C2.58874 7.866 2.60524 7.916 2.60824 7.986C2.61124 8.063 2.61124 8.1395 2.60824 8.2155H2.50924C2.51224 8.1345 2.51224 8.053 2.50924 7.971C2.50624 7.907 2.47474 7.875 2.41474 7.875C2.35274 7.875 2.32074 7.907 2.31874 7.971C2.31174 8.257 2.31174 8.5425 2.31874 8.8275C2.31874 8.8615 2.32624 8.8865 2.34124 8.9025C2.35724 8.9175 2.38174 8.925 2.41474 8.925C2.48074 8.925 2.51474 8.8925 2.51674 8.8275C2.51874 8.7465 2.51874 8.665 2.51674 8.583H2.41624V8.4945H2.61424C2.61524 8.5335 2.61574 8.579 2.61574 8.631C2.61574 8.682 2.61524 8.7425 2.61424 8.8125C2.61124 8.8835 2.59424 8.9345 2.56324 8.9655C2.53324 8.9955 2.48374 9.0105 2.41474 9.0105ZM2.7338 9V7.8H3.0713V7.89H2.8328V8.352H3.0563V8.4405H2.8328V8.91H3.0713V9H2.7338ZM3.18497 9V7.8H3.37697L3.44147 8.292L3.49697 8.9055H3.52397L3.57947 8.292L3.64397 7.8H3.83597V9H3.73697V8.6445L3.75197 7.89H3.72047L3.63647 8.655L3.58697 8.9955H3.43397L3.38447 8.655L3.30047 7.89H3.26897L3.28547 8.652V9H3.18497ZM3.99503 9V7.8H4.33253V7.89H4.09403V8.352H4.31753V8.4405H4.09403V8.91H4.33253V9H3.99503ZM4.4462 9V7.8H4.6247L4.6892 8.1795L4.8017 8.91H4.8332L4.8182 8.2215L4.8107 7.8H4.9082V9H4.7252L4.6547 8.5695L4.5542 7.89H4.5227L4.5362 8.547L4.5437 9H4.4462ZM5.16514 9V7.89H5.01214V7.8H5.41714V7.89H5.26564V9H5.16514Z" fill="#292929"/>
<defs>
<linearGradient id="paint0_linear" x1="3" y1="10" x2="3" y2="9.51253e-08" gradientUnits="userSpaceOnUse">
<stop stop-color="white" stop-opacity="0"/>
<stop offset="1" stop-color="white"/>
</linearGradient>
</defs>
</svg>
