<svg width="6" height="10" viewBox="0 0 6 10" fill="none" xmlns="http://www.w3.org/2000/svg">
<rect width="6" height="10" fill="#666666"/>
<path d="M2.99096 9.021C2.85496 9.021 2.75696 8.991 2.69696 8.931C2.63696 8.869 2.60596 8.768 2.60396 8.628C2.59996 8.344 2.59796 8.065 2.59796 7.791C2.59796 7.517 2.59996 7.245 2.60396 6.975C2.60796 6.839 2.64196 6.74 2.70596 6.678C2.76996 6.614 2.86396 6.582 2.98796 6.582C3.24396 6.582 3.37596 6.713 3.38396 6.975C3.38396 7.007 3.38396 7.048 3.38396 7.098C3.38596 7.148 3.38596 7.199 3.38396 7.251C3.38396 7.301 3.38396 7.343 3.38396 7.377H3.18596C3.19196 7.241 3.19196 7.097 3.18596 6.945C3.18396 6.879 3.16796 6.83 3.13796 6.798C3.10796 6.766 3.05896 6.75 2.99096 6.75C2.86896 6.75 2.80596 6.815 2.80196 6.945C2.79596 7.179 2.79296 7.426 2.79296 7.686H2.84396C2.86196 7.65 2.89396 7.62 2.93996 7.596C2.98596 7.572 3.03696 7.56 3.09296 7.56C3.20296 7.56 3.27996 7.589 3.32396 7.647C3.36996 7.703 3.39496 7.796 3.39896 7.926C3.40096 8.052 3.40196 8.171 3.40196 8.283C3.40196 8.393 3.39996 8.508 3.39596 8.628C3.38996 8.768 3.35596 8.869 3.29396 8.931C3.23196 8.991 3.13096 9.021 2.99096 9.021ZM2.99096 8.853C3.12496 8.853 3.19396 8.788 3.19796 8.658C3.19996 8.526 3.20096 8.402 3.20096 8.286C3.20096 8.17 3.19996 8.051 3.19796 7.929C3.19596 7.799 3.13596 7.734 3.01796 7.734C2.95396 7.734 2.90096 7.75 2.85896 7.782C2.81896 7.814 2.79696 7.861 2.79296 7.923C2.79496 8.035 2.79596 8.152 2.79596 8.274C2.79796 8.396 2.79996 8.524 2.80196 8.658C2.80596 8.788 2.86896 8.853 2.99096 8.853Z" fill="white"/>
<rect x="3.5" y="5.5" width="1" height="3" transform="rotate(180 3.5 5.5)" fill="#292929"/>
<path d="M3 0.5L3.33761 1.41239L4.25 1.75L3.33761 2.08761L3 3L2.66239 2.08761L1.75 1.75L2.66239 1.41239L3 0.5Z" fill="white"/>
</svg>
