<svg width="6" height="10" viewBox="0 0 6 10" fill="none" xmlns="http://www.w3.org/2000/svg">
<rect width="6" height="10" fill="#666666"/>
<path d="M2.38746 9V6.819H2.28546L2.27646 6.738L2.42646 6.6H2.58546V9H2.38746ZM3.27912 9.021C3.13712 9.021 3.03412 8.991 2.97012 8.931C2.90612 8.869 2.87212 8.767 2.86812 8.625C2.86612 8.555 2.86512 8.487 2.86512 8.421C2.86512 8.353 2.86612 8.269 2.86812 8.169H3.06912V8.646C3.06912 8.782 3.13712 8.85 3.27312 8.85C3.40512 8.85 3.47112 8.782 3.47112 8.646C3.47912 8.442 3.47912 8.239 3.47112 8.037C3.46912 7.961 3.45012 7.904 3.41412 7.866C3.38012 7.828 3.32012 7.809 3.23412 7.809H3.07512L3.06912 7.641L3.45312 6.78H2.86812V6.6H3.68412V6.765L3.28512 7.632C3.41912 7.638 3.51512 7.672 3.57312 7.734C3.63312 7.796 3.66612 7.897 3.67212 8.037C3.67812 8.287 3.67812 8.483 3.67212 8.625C3.66412 8.767 3.63012 8.869 3.57012 8.931C3.51012 8.991 3.41312 9.021 3.27912 9.021Z" fill="white"/>
<rect x="1.5" y="1" width="3" height="3" fill="white"/>
<path d="M3 3L4.29904 5.25H1.70096L3 3Z" fill="#292929"/>
</svg>
