<svg width="6" height="10" viewBox="0 0 6 10" fill="none" xmlns="http://www.w3.org/2000/svg">
<rect width="6" height="10" fill="#666666"/>
<path d="M2.37574 9V6.819H2.27374L2.26474 6.738L2.41474 6.6H2.57374V9H2.37574ZM2.9014 9C2.9014 8.958 2.9004 8.923 2.8984 8.895C2.8984 8.867 2.8974 8.84 2.8954 8.814C2.8954 8.788 2.8954 8.755 2.8954 8.715C2.8974 8.675 2.8984 8.622 2.8984 8.556C2.9004 8.416 2.9154 8.301 2.9434 8.211C2.9714 8.121 3.0084 8.048 3.0544 7.992C3.1024 7.934 3.1554 7.884 3.2134 7.842L3.3454 7.74C3.4074 7.686 3.4464 7.631 3.4624 7.575C3.4804 7.519 3.4914 7.459 3.4954 7.395C3.5034 7.245 3.5034 7.094 3.4954 6.942C3.4914 6.876 3.4734 6.828 3.4414 6.798C3.4114 6.766 3.3604 6.75 3.2884 6.75C3.2204 6.75 3.1714 6.766 3.1414 6.798C3.1114 6.828 3.0954 6.876 3.0934 6.942C3.0914 7.024 3.0904 7.106 3.0904 7.188C3.0904 7.27 3.0924 7.351 3.0964 7.431H2.8984C2.8964 7.351 2.8944 7.271 2.8924 7.191C2.8924 7.109 2.8934 7.036 2.8954 6.972C2.8994 6.832 2.9324 6.732 2.9944 6.672C3.0564 6.61 3.1554 6.579 3.2914 6.579C3.4334 6.579 3.5344 6.61 3.5944 6.672C3.6544 6.732 3.6874 6.832 3.6934 6.972C3.6954 7.012 3.6964 7.058 3.6964 7.11C3.6984 7.162 3.6994 7.214 3.6994 7.266C3.6994 7.316 3.6984 7.359 3.6964 7.395C3.6924 7.487 3.6784 7.565 3.6544 7.629C3.6324 7.691 3.6004 7.746 3.5584 7.794C3.5184 7.842 3.4684 7.889 3.4084 7.935L3.2704 8.037C3.2124 8.085 3.1694 8.156 3.1414 8.25C3.1134 8.342 3.0994 8.444 3.0994 8.556V8.82H3.6934V9H2.9014Z" fill="white"/>
<rect x="3.5" y="5.5" width="1" height="3" transform="rotate(180 3.5 5.5)" fill="#292929"/>
<path d="M3 0.5L3.33761 1.41239L4.25 1.75L3.33761 2.08761L3 3L2.66239 2.08761L1.75 1.75L2.66239 1.41239L3 0.5Z" fill="white"/>
</svg>
