<svg width="6" height="10" viewBox="0 0 6 10" fill="none" xmlns="http://www.w3.org/2000/svg">
<rect width="6" height="10" fill="#666666"/>
<path d="M3 0L6 10H0L3 0Z" fill="url(#paint0_linear)"/>
<path d="M1.81607 9V7.8H2.00807L2.07257 8.292L2.12807 8.9055H2.15507L2.21057 8.292L2.27507 7.8H2.46707V9H2.36807V8.6445L2.38307 7.89H2.35157L2.26757 8.655L2.21807 8.9955H2.06507L2.01557 8.655L1.93157 7.89H1.90007L1.91657 8.652V9H1.81607ZM2.82127 9.0105C2.75227 9.0105 2.70227 8.9955 2.67127 8.9655C2.64127 8.9355 2.62577 8.8855 2.62477 8.8155C2.62177 8.6725 2.62027 8.5345 2.62027 8.4015C2.62027 8.2675 2.62177 8.1285 2.62477 7.9845C2.62577 7.9145 2.64127 7.8645 2.67127 7.8345C2.70227 7.8045 2.75227 7.7895 2.82127 7.7895C2.89127 7.7895 2.94127 7.8045 2.97127 7.8345C3.00127 7.8645 3.01727 7.9145 3.01927 7.9845C3.02127 8.1285 3.02227 8.2675 3.02227 8.4015C3.02227 8.5345 3.02127 8.6725 3.01927 8.8155C3.01727 8.8855 3.00127 8.9355 2.97127 8.9655C2.94127 8.9955 2.89127 9.0105 2.82127 9.0105ZM2.82127 8.925C2.85627 8.925 2.88127 8.918 2.89627 8.904C2.91127 8.89 2.91877 8.8655 2.91877 8.8305C2.92377 8.6835 2.92577 8.539 2.92477 8.397C2.92477 8.255 2.92277 8.1125 2.91877 7.9695C2.91877 7.9345 2.91127 7.91 2.89627 7.896C2.88127 7.882 2.85627 7.875 2.82127 7.875C2.78727 7.875 2.76277 7.882 2.74777 7.896C2.73277 7.91 2.72477 7.9345 2.72377 7.9695C2.71977 8.1125 2.71777 8.255 2.71777 8.397C2.71777 8.539 2.71977 8.6835 2.72377 8.8305C2.72477 8.8655 2.73277 8.89 2.74777 8.904C2.76277 8.918 2.78727 8.925 2.82127 8.925ZM3.37205 9.0105C3.30305 9.0105 3.25305 8.9955 3.22205 8.9655C3.19205 8.9355 3.17655 8.8855 3.17555 8.8155C3.17255 8.6725 3.17105 8.5345 3.17105 8.4015C3.17105 8.2675 3.17255 8.1285 3.17555 7.9845C3.17655 7.9145 3.19205 7.8645 3.22205 7.8345C3.25305 7.8045 3.30305 7.7895 3.37205 7.7895C3.44205 7.7895 3.49205 7.8045 3.52205 7.8345C3.55205 7.8645 3.56805 7.9145 3.57005 7.9845C3.57205 8.1285 3.57305 8.2675 3.57305 8.4015C3.57305 8.5345 3.57205 8.6725 3.57005 8.8155C3.56805 8.8855 3.55205 8.9355 3.52205 8.9655C3.49205 8.9955 3.44205 9.0105 3.37205 9.0105ZM3.37205 8.925C3.40705 8.925 3.43205 8.918 3.44705 8.904C3.46205 8.89 3.46955 8.8655 3.46955 8.8305C3.47455 8.6835 3.47655 8.539 3.47555 8.397C3.47555 8.255 3.47355 8.1125 3.46955 7.9695C3.46955 7.9345 3.46205 7.91 3.44705 7.896C3.43205 7.882 3.40705 7.875 3.37205 7.875C3.33805 7.875 3.31355 7.882 3.29855 7.896C3.28355 7.91 3.27555 7.9345 3.27455 7.9695C3.27055 8.1125 3.26855 8.255 3.26855 8.397C3.26855 8.539 3.27055 8.6835 3.27455 8.8305C3.27555 8.8655 3.28355 8.89 3.29855 8.904C3.31355 8.918 3.33805 8.925 3.37205 8.925ZM3.72183 9V7.8H3.90033L3.96483 8.1795L4.07733 8.91H4.10883L4.09383 8.2215L4.08633 7.8H4.18383V9H4.00083L3.93033 8.5695L3.82983 7.89H3.79833L3.81183 8.547L3.81933 9H3.72183Z" fill="#292929"/>
<defs>
<linearGradient id="paint0_linear" x1="3" y1="10" x2="3" y2="9.51253e-08" gradientUnits="userSpaceOnUse">
<stop stop-color="white" stop-opacity="0"/>
<stop offset="1" stop-color="white"/>
</linearGradient>
</defs>
</svg>
