<svg width="6" height="10" viewBox="0 0 6 10" fill="none" xmlns="http://www.w3.org/2000/svg">
<rect width="6" height="10" fill="#666666"/>
<path d="M3 0L6 10H0L3 0Z" fill="url(#paint0_linear)"/>
<path d="M1.59934 9.0105C1.52934 9.0105 1.48034 8.9955 1.45234 8.9655C1.42434 8.9345 1.40934 8.8835 1.40734 8.8125C1.40534 8.7305 1.40534 8.6485 1.40734 8.5665H1.50184C1.49884 8.6535 1.49884 8.7405 1.50184 8.8275C1.50284 8.8615 1.51034 8.8865 1.52434 8.9025C1.53934 8.9175 1.56434 8.925 1.59934 8.925C1.63234 8.925 1.65584 8.9175 1.66984 8.9025C1.68484 8.8865 1.69234 8.8615 1.69234 8.8275V7.8H1.79134V8.8125C1.79134 8.8835 1.77634 8.9345 1.74634 8.9655C1.71734 8.9955 1.66834 9.0105 1.59934 9.0105ZM2.13785 9.0105C2.06885 9.0105 2.01885 8.9955 1.98785 8.9655C1.95785 8.9355 1.94235 8.8855 1.94135 8.8155C1.93835 8.4775 1.93835 8.139 1.94135 7.8H2.04185C2.03985 7.969 2.03835 8.141 2.03735 8.316C2.03735 8.49 2.03835 8.6615 2.04035 8.8305C2.04035 8.8935 2.07285 8.925 2.13785 8.925C2.20185 8.925 2.23385 8.8935 2.23385 8.8305C2.23485 8.6615 2.23535 8.49 2.23535 8.316C2.23635 8.141 2.23585 7.969 2.23385 7.8H2.33285C2.33585 8.139 2.33585 8.4775 2.33285 8.8155C2.33185 8.8855 2.31635 8.9355 2.28635 8.9655C2.25635 8.9955 2.20685 9.0105 2.13785 9.0105ZM2.6887 9.0105C2.6197 9.0105 2.5702 8.9955 2.5402 8.9655C2.5102 8.9345 2.4937 8.8835 2.4907 8.8125C2.4897 8.7665 2.4892 8.726 2.4892 8.691C2.4892 8.655 2.4907 8.6135 2.4937 8.5665H2.5882C2.5862 8.6105 2.5852 8.6545 2.5852 8.6985C2.5852 8.7425 2.5862 8.7855 2.5882 8.8275C2.5902 8.8615 2.5987 8.8865 2.6137 8.9025C2.6287 8.9175 2.6537 8.925 2.6887 8.925C2.7217 8.925 2.7452 8.9175 2.7592 8.9025C2.7742 8.8865 2.7827 8.8615 2.7847 8.8275C2.7867 8.7995 2.7877 8.7745 2.7877 8.7525C2.7877 8.7305 2.7872 8.708 2.7862 8.685C2.7862 8.661 2.7857 8.6335 2.7847 8.6025C2.7837 8.5645 2.7782 8.533 2.7682 8.508C2.7592 8.483 2.7407 8.467 2.7127 8.46L2.6332 8.439C2.5752 8.425 2.5372 8.3995 2.5192 8.3625C2.5012 8.3255 2.4912 8.2725 2.4892 8.2035C2.4882 8.1705 2.4877 8.135 2.4877 8.097C2.4887 8.059 2.4897 8.022 2.4907 7.986C2.4917 7.916 2.5072 7.866 2.5372 7.836C2.5672 7.805 2.6177 7.7895 2.6887 7.7895C2.7547 7.7895 2.8022 7.805 2.8312 7.836C2.8612 7.866 2.8777 7.916 2.8807 7.986C2.8807 8.014 2.8807 8.0485 2.8807 8.0895C2.8807 8.1295 2.8802 8.1715 2.8792 8.2155H2.7832C2.7842 8.1755 2.7847 8.135 2.7847 8.094C2.7847 8.053 2.7842 8.012 2.7832 7.971C2.7812 7.907 2.7492 7.875 2.6872 7.875C2.6532 7.875 2.6287 7.883 2.6137 7.899C2.5997 7.914 2.5917 7.938 2.5897 7.971C2.5877 8.01 2.5867 8.049 2.5867 8.088C2.5867 8.126 2.5877 8.1645 2.5897 8.2035C2.5907 8.2485 2.5957 8.282 2.6047 8.304C2.6147 8.326 2.6347 8.341 2.6647 8.349L2.7382 8.367C2.7972 8.381 2.8357 8.407 2.8537 8.445C2.8727 8.483 2.8832 8.5355 2.8852 8.6025C2.8862 8.6335 2.8867 8.6595 2.8867 8.6805C2.8867 8.7015 2.8862 8.722 2.8852 8.742C2.8852 8.762 2.8852 8.7855 2.8852 8.8125C2.8822 8.8835 2.8657 8.9345 2.8357 8.9655C2.8057 8.9955 2.7567 9.0105 2.6887 9.0105ZM3.12022 9V7.89H2.96722V7.8H3.37222V7.89H3.22072V9H3.12022ZM3.47208 9V7.8H3.57108V9H3.47208ZM3.92053 9.0105C3.85253 9.0105 3.80353 8.9955 3.77353 8.9655C3.74353 8.9345 3.72803 8.884 3.72703 8.814C3.72503 8.673 3.72403 8.5355 3.72403 8.4015C3.72403 8.2665 3.72503 8.1285 3.72703 7.9875C3.72803 7.9225 3.74353 7.8735 3.77353 7.8405C3.80353 7.8075 3.85253 7.791 3.92053 7.791C3.98853 7.791 4.03753 7.8065 4.06753 7.8375C4.09853 7.8675 4.11503 7.9175 4.11703 7.9875C4.11803 8.0065 4.11853 8.0305 4.11853 8.0595C4.11853 8.0885 4.11803 8.1175 4.11703 8.1465C4.11703 8.1745 4.11703 8.198 4.11703 8.217H4.01653C4.01753 8.179 4.01803 8.1385 4.01803 8.0955C4.01903 8.0515 4.01903 8.0105 4.01803 7.9725C4.01703 7.9375 4.00903 7.9125 3.99403 7.8975C3.97903 7.8825 3.95453 7.875 3.92053 7.875C3.88753 7.875 3.86353 7.8825 3.84853 7.8975C3.83453 7.9125 3.82703 7.9375 3.82603 7.9725C3.82303 8.1205 3.82153 8.263 3.82153 8.4C3.82153 8.537 3.82303 8.68 3.82603 8.829C3.82703 8.864 3.83503 8.889 3.85003 8.904C3.86503 8.919 3.88853 8.9265 3.92053 8.9265C3.95653 8.9265 3.98253 8.919 3.99853 8.904C4.01453 8.889 4.02303 8.864 4.02403 8.829C4.02503 8.788 4.02503 8.7445 4.02403 8.6985C4.02403 8.6525 4.02353 8.609 4.02253 8.568H4.12303C4.12403 8.61 4.12453 8.651 4.12453 8.691C4.12453 8.731 4.12403 8.772 4.12303 8.814C4.12103 8.884 4.10453 8.9345 4.07353 8.9655C4.04253 8.9955 3.99153 9.0105 3.92053 9.0105ZM4.25284 9V7.8H4.59034V7.89H4.35184V8.352H4.57534V8.4405H4.35184V8.91H4.59034V9H4.25284Z" fill="#292929"/>
<defs>
<linearGradient id="paint0_linear" x1="3" y1="10" x2="3" y2="9.51253e-08" gradientUnits="userSpaceOnUse">
<stop stop-color="white" stop-opacity="0"/>
<stop offset="1" stop-color="white"/>
</linearGradient>
</defs>
</svg>
