<svg width="6" height="10" viewBox="0 0 6 10" fill="none" xmlns="http://www.w3.org/2000/svg">
<rect width="6" height="10" fill="#666666"/>
<path d="M3 0L6 10H0L3 0Z" fill="url(#paint0_linear)"/>
<path d="M0.602449 9V7.8H0.701449V8.352H0.893449V7.8H0.992449V9H0.893449V8.4405H0.701449V9H0.602449ZM1.15177 9V7.8H1.48927V7.89H1.25077V8.352H1.47427V8.4405H1.25077V8.91H1.48927V9H1.15177ZM1.60294 9V7.8H1.70194V9H1.60294ZM1.86075 9V7.8H2.04225C2.11025 7.8 2.15975 7.815 2.19075 7.845C2.22175 7.875 2.23825 7.9245 2.24025 7.9935C2.24325 8.0605 2.24475 8.1225 2.24475 8.1795C2.24475 8.2365 2.24325 8.2925 2.24025 8.3475C2.23725 8.4425 2.20475 8.5015 2.14275 8.5245L2.26425 9H2.15775L2.04825 8.5425H1.95975V9H1.86075ZM1.95975 8.4525H2.04225C2.07625 8.4525 2.10075 8.4445 2.11575 8.4285C2.13175 8.4125 2.14025 8.387 2.14125 8.352C2.14625 8.231 2.14625 8.11 2.14125 7.989C2.14025 7.955 2.13175 7.93 2.11575 7.914C2.10075 7.898 2.07625 7.89 2.04225 7.89H1.95975V8.4525ZM2.57298 9.0105C2.50398 9.0105 2.45398 8.9955 2.42298 8.9655C2.39298 8.9355 2.37748 8.8855 2.37648 8.8155C2.37348 8.6725 2.37198 8.5345 2.37198 8.4015C2.37198 8.2675 2.37348 8.1285 2.37648 7.9845C2.37748 7.9145 2.39298 7.8645 2.42298 7.8345C2.45398 7.8045 2.50398 7.7895 2.57298 7.7895C2.64298 7.7895 2.69298 7.8045 2.72298 7.8345C2.75298 7.8645 2.76898 7.9145 2.77098 7.9845C2.77298 8.1285 2.77398 8.2675 2.77398 8.4015C2.77398 8.5345 2.77298 8.6725 2.77098 8.8155C2.76898 8.8855 2.75298 8.9355 2.72298 8.9655C2.69298 8.9955 2.64298 9.0105 2.57298 9.0105ZM2.57298 8.925C2.60798 8.925 2.63298 8.918 2.64798 8.904C2.66298 8.89 2.67048 8.8655 2.67048 8.8305C2.67548 8.6835 2.67748 8.539 2.67648 8.397C2.67648 8.255 2.67448 8.1125 2.67048 7.9695C2.67048 7.9345 2.66298 7.91 2.64798 7.896C2.63298 7.882 2.60798 7.875 2.57298 7.875C2.53898 7.875 2.51448 7.882 2.49948 7.896C2.48448 7.91 2.47648 7.9345 2.47548 7.9695C2.47148 8.1125 2.46948 8.255 2.46948 8.397C2.46948 8.539 2.47148 8.6835 2.47548 8.8305C2.47648 8.8655 2.48448 8.89 2.49948 8.904C2.51448 8.918 2.53898 8.925 2.57298 8.925ZM2.92276 9V7.8H3.10426C3.17226 7.8 3.22176 7.815 3.25276 7.845C3.28376 7.875 3.30026 7.9245 3.30226 7.9935C3.30526 8.0605 3.30676 8.121 3.30676 8.175C3.30676 8.228 3.30526 8.282 3.30226 8.337C3.30026 8.406 3.28376 8.4555 3.25276 8.4855C3.22176 8.5155 3.17226 8.5305 3.10426 8.5305H3.02176V9H2.92276ZM3.02176 8.442H3.10426C3.13826 8.442 3.16276 8.434 3.17776 8.418C3.19376 8.401 3.20226 8.3755 3.20326 8.3415C3.20726 8.2245 3.20726 8.107 3.20326 7.989C3.20226 7.955 3.19376 7.93 3.17776 7.914C3.16276 7.898 3.13826 7.89 3.10426 7.89H3.02176V8.442ZM3.4252 9V7.8H3.5242V8.352H3.7162V7.8H3.8152V9H3.7162V8.4405H3.5242V9H3.4252ZM3.92377 9L4.05277 7.8H4.23877L4.36627 9H4.26427L4.23277 8.652H4.05727L4.02577 9H3.92377ZM4.06627 8.562H4.22377L4.19977 8.2995L4.16677 7.89H4.12477L4.09027 8.301L4.06627 8.562ZM4.46524 9V7.8H4.64374L4.70824 8.1795L4.82074 8.91H4.85224L4.83724 8.2215L4.82974 7.8H4.92724V9H4.74424L4.67374 8.5695L4.57324 7.89H4.54174L4.55524 8.547L4.56274 9H4.46524ZM5.18419 9V7.89H5.03119V7.8H5.43619V7.89H5.28469V9H5.18419Z" fill="#292929"/>
<defs>
<linearGradient id="paint0_linear" x1="3" y1="10" x2="3" y2="9.51253e-08" gradientUnits="userSpaceOnUse">
<stop stop-color="white" stop-opacity="0"/>
<stop offset="1" stop-color="white"/>
</linearGradient>
</defs>
</svg>
