<svg width="6" height="10" viewBox="0 0 6 10" fill="none" xmlns="http://www.w3.org/2000/svg">
<g clip-path="url(#clip0)">
<rect width="6" height="10" fill="#666666"/>
<path d="M3 0L6 10H0L3 0Z" fill="url(#paint0_linear)"/>
<path d="M2.14493 8V6.8H2.24393V7.352H2.43593V6.8H2.53493V8H2.43593V7.4405H2.24393V8H2.14493ZM2.69425 8V6.8H2.79325V8H2.69425ZM3.1457 8.0105C3.0767 8.0105 3.0272 7.9955 2.9972 7.9655C2.9672 7.9345 2.9512 7.8835 2.9492 7.8125C2.9442 7.5375 2.9442 7.264 2.9492 6.992C2.9512 6.919 2.9672 6.867 2.9972 6.836C3.0272 6.805 3.0767 6.7895 3.1457 6.7895C3.2117 6.7895 3.2597 6.805 3.2897 6.836C3.3197 6.866 3.3362 6.916 3.3392 6.986C3.3422 7.063 3.3422 7.1395 3.3392 7.2155H3.2402C3.2432 7.1345 3.2432 7.053 3.2402 6.971C3.2372 6.907 3.2057 6.875 3.1457 6.875C3.0837 6.875 3.0517 6.907 3.0497 6.971C3.0427 7.257 3.0427 7.5425 3.0497 7.8275C3.0497 7.8615 3.0572 7.8865 3.0722 7.9025C3.0882 7.9175 3.1127 7.925 3.1457 7.925C3.2117 7.925 3.2457 7.8925 3.2477 7.8275C3.2497 7.7465 3.2497 7.665 3.2477 7.583H3.1472V7.4945H3.3452C3.3462 7.5335 3.3467 7.579 3.3467 7.631C3.3467 7.682 3.3462 7.7425 3.3452 7.8125C3.3422 7.8835 3.3252 7.9345 3.2942 7.9655C3.2642 7.9955 3.2147 8.0105 3.1457 8.0105ZM3.46475 8V6.8H3.56375V7.352H3.75575V6.8H3.85475V8H3.75575V7.4405H3.56375V8H3.46475ZM0.948152 10V8.8H1.12965C1.19765 8.8 1.24715 8.815 1.27815 8.845C1.30915 8.875 1.32565 8.9245 1.32765 8.9935C1.33065 9.0605 1.33215 9.121 1.33215 9.175C1.33215 9.228 1.33065 9.282 1.32765 9.337C1.32565 9.406 1.30915 9.4555 1.27815 9.4855C1.24715 9.5155 1.19765 9.5305 1.12965 9.5305H1.04715V10H0.948152ZM1.04715 9.442H1.12965C1.16365 9.442 1.18815 9.434 1.20315 9.418C1.21915 9.401 1.22765 9.3755 1.22865 9.3415C1.23265 9.2245 1.23265 9.107 1.22865 8.989C1.22765 8.955 1.21915 8.93 1.20315 8.914C1.18815 8.898 1.16365 8.89 1.12965 8.89H1.04715V9.442ZM1.45059 10V8.8H1.63209C1.70009 8.8 1.74959 8.815 1.78059 8.845C1.81159 8.875 1.82809 8.9245 1.83009 8.9935C1.83309 9.0605 1.83459 9.1225 1.83459 9.1795C1.83459 9.2365 1.83309 9.2925 1.83009 9.3475C1.82709 9.4425 1.79459 9.5015 1.73259 9.5245L1.85409 10H1.74759L1.63809 9.5425H1.54959V10H1.45059ZM1.54959 9.4525H1.63209C1.66609 9.4525 1.69059 9.4445 1.70559 9.4285C1.72159 9.4125 1.73009 9.387 1.73109 9.352C1.73609 9.231 1.73609 9.11 1.73109 8.989C1.73009 8.955 1.72159 8.93 1.70559 8.914C1.69059 8.898 1.66609 8.89 1.63209 8.89H1.54959V9.4525ZM1.96329 10V8.8H2.06229V10H1.96329ZM2.2211 10V8.8H2.5586V8.89H2.3201V9.352H2.5436V9.4405H2.3201V9.91H2.5586V10H2.2211ZM2.87327 10.0105C2.80427 10.0105 2.75477 9.9955 2.72477 9.9655C2.69477 9.9345 2.67827 9.8835 2.67527 9.8125C2.67427 9.7665 2.67377 9.726 2.67377 9.691C2.67377 9.655 2.67527 9.6135 2.67827 9.5665H2.77277C2.77077 9.6105 2.76977 9.6545 2.76977 9.6985C2.76977 9.7425 2.77077 9.7855 2.77277 9.8275C2.77477 9.8615 2.78327 9.8865 2.79827 9.9025C2.81327 9.9175 2.83827 9.925 2.87327 9.925C2.90627 9.925 2.92977 9.9175 2.94377 9.9025C2.95877 9.8865 2.96727 9.8615 2.96927 9.8275C2.97127 9.7995 2.97227 9.7745 2.97227 9.7525C2.97227 9.7305 2.97177 9.708 2.97077 9.685C2.97077 9.661 2.97027 9.6335 2.96927 9.6025C2.96827 9.5645 2.96277 9.533 2.95277 9.508C2.94377 9.483 2.92527 9.467 2.89727 9.46L2.81777 9.439C2.75977 9.425 2.72177 9.3995 2.70377 9.3625C2.68577 9.3255 2.67577 9.2725 2.67377 9.2035C2.67277 9.1705 2.67227 9.135 2.67227 9.097C2.67327 9.059 2.67427 9.022 2.67527 8.986C2.67627 8.916 2.69177 8.866 2.72177 8.836C2.75177 8.805 2.80227 8.7895 2.87327 8.7895C2.93927 8.7895 2.98677 8.805 3.01577 8.836C3.04577 8.866 3.06227 8.916 3.06527 8.986C3.06527 9.014 3.06527 9.0485 3.06527 9.0895C3.06527 9.1295 3.06477 9.1715 3.06377 9.2155H2.96777C2.96877 9.1755 2.96927 9.135 2.96927 9.094C2.96927 9.053 2.96877 9.012 2.96777 8.971C2.96577 8.907 2.93377 8.875 2.87177 8.875C2.83777 8.875 2.81327 8.883 2.79827 8.899C2.78427 8.914 2.77627 8.938 2.77427 8.971C2.77227 9.01 2.77127 9.049 2.77127 9.088C2.77127 9.126 2.77227 9.1645 2.77427 9.2035C2.77527 9.2485 2.78027 9.282 2.78927 9.304C2.79927 9.326 2.81927 9.341 2.84927 9.349L2.92277 9.367C2.98177 9.381 3.02027 9.407 3.03827 9.445C3.05727 9.483 3.06777 9.5355 3.06977 9.6025C3.07077 9.6335 3.07127 9.6595 3.07127 9.6805C3.07127 9.7015 3.07077 9.722 3.06977 9.742C3.06977 9.762 3.06977 9.7855 3.06977 9.8125C3.06677 9.8835 3.05027 9.9345 3.02027 9.9655C2.99027 9.9955 2.94127 10.0105 2.87327 10.0105ZM3.30479 10V8.89H3.15179V8.8H3.55679V8.89H3.40529V10H3.30479ZM3.65665 10V8.8H3.99415V8.89H3.75565V9.352H3.97915V9.4405H3.75565V9.91H3.99415V10H3.65665ZM4.30882 10.0105C4.23982 10.0105 4.19032 9.9955 4.16032 9.9655C4.13032 9.9345 4.11382 9.8835 4.11082 9.8125C4.10982 9.7665 4.10932 9.726 4.10932 9.691C4.10932 9.655 4.11082 9.6135 4.11382 9.5665H4.20832C4.20632 9.6105 4.20532 9.6545 4.20532 9.6985C4.20532 9.7425 4.20632 9.7855 4.20832 9.8275C4.21032 9.8615 4.21882 9.8865 4.23382 9.9025C4.24882 9.9175 4.27382 9.925 4.30882 9.925C4.34182 9.925 4.36532 9.9175 4.37932 9.9025C4.39432 9.8865 4.40282 9.8615 4.40482 9.8275C4.40682 9.7995 4.40782 9.7745 4.40782 9.7525C4.40782 9.7305 4.40732 9.708 4.40632 9.685C4.40632 9.661 4.40582 9.6335 4.40482 9.6025C4.40382 9.5645 4.39832 9.533 4.38832 9.508C4.37932 9.483 4.36082 9.467 4.33282 9.46L4.25332 9.439C4.19532 9.425 4.15732 9.3995 4.13932 9.3625C4.12132 9.3255 4.11132 9.2725 4.10932 9.2035C4.10832 9.1705 4.10782 9.135 4.10782 9.097C4.10882 9.059 4.10982 9.022 4.11082 8.986C4.11182 8.916 4.12732 8.866 4.15732 8.836C4.18732 8.805 4.23782 8.7895 4.30882 8.7895C4.37482 8.7895 4.42232 8.805 4.45132 8.836C4.48132 8.866 4.49782 8.916 4.50082 8.986C4.50082 9.014 4.50082 9.0485 4.50082 9.0895C4.50082 9.1295 4.50032 9.1715 4.49932 9.2155H4.40332C4.40432 9.1755 4.40482 9.135 4.40482 9.094C4.40482 9.053 4.40432 9.012 4.40332 8.971C4.40132 8.907 4.36932 8.875 4.30732 8.875C4.27332 8.875 4.24882 8.883 4.23382 8.899C4.21982 8.914 4.21182 8.938 4.20982 8.971C4.20782 9.01 4.20682 9.049 4.20682 9.088C4.20682 9.126 4.20782 9.1645 4.20982 9.2035C4.21082 9.2485 4.21582 9.282 4.22482 9.304C4.23482 9.326 4.25482 9.341 4.28482 9.349L4.35832 9.367C4.41732 9.381 4.45582 9.407 4.47382 9.445C4.49282 9.483 4.50332 9.5355 4.50532 9.6025C4.50632 9.6335 4.50682 9.6595 4.50682 9.6805C4.50682 9.7015 4.50632 9.722 4.50532 9.742C4.50532 9.762 4.50532 9.7855 4.50532 9.8125C4.50232 9.8835 4.48582 9.9345 4.45582 9.9655C4.42582 9.9955 4.37682 10.0105 4.30882 10.0105ZM4.85521 10.0105C4.78621 10.0105 4.73671 9.9955 4.70671 9.9655C4.67671 9.9345 4.66021 9.8835 4.65721 9.8125C4.65621 9.7665 4.65571 9.726 4.65571 9.691C4.65571 9.655 4.65721 9.6135 4.66021 9.5665H4.75471C4.75271 9.6105 4.75171 9.6545 4.75171 9.6985C4.75171 9.7425 4.75271 9.7855 4.75471 9.8275C4.75671 9.8615 4.76521 9.8865 4.78021 9.9025C4.79521 9.9175 4.82021 9.925 4.85521 9.925C4.88821 9.925 4.91171 9.9175 4.92571 9.9025C4.94071 9.8865 4.94921 9.8615 4.95121 9.8275C4.95321 9.7995 4.95421 9.7745 4.95421 9.7525C4.95421 9.7305 4.95371 9.708 4.95271 9.685C4.95271 9.661 4.95221 9.6335 4.95121 9.6025C4.95021 9.5645 4.94471 9.533 4.93471 9.508C4.92571 9.483 4.90721 9.467 4.87921 9.46L4.79971 9.439C4.74171 9.425 4.70371 9.3995 4.68571 9.3625C4.66771 9.3255 4.65771 9.2725 4.65571 9.2035C4.65471 9.1705 4.65421 9.135 4.65421 9.097C4.65521 9.059 4.65621 9.022 4.65721 8.986C4.65821 8.916 4.67371 8.866 4.70371 8.836C4.73371 8.805 4.78421 8.7895 4.85521 8.7895C4.92121 8.7895 4.96871 8.805 4.99771 8.836C5.02771 8.866 5.04421 8.916 5.04721 8.986C5.04721 9.014 5.04721 9.0485 5.04721 9.0895C5.04721 9.1295 5.04671 9.1715 5.04571 9.2155H4.94971C4.95071 9.1755 4.95121 9.135 4.95121 9.094C4.95121 9.053 4.95071 9.012 4.94971 8.971C4.94771 8.907 4.91571 8.875 4.85371 8.875C4.81971 8.875 4.79521 8.883 4.78021 8.899C4.76621 8.914 4.75821 8.938 4.75621 8.971C4.75421 9.01 4.75321 9.049 4.75321 9.088C4.75321 9.126 4.75421 9.1645 4.75621 9.2035C4.75721 9.2485 4.76221 9.282 4.77121 9.304C4.78121 9.326 4.80121 9.341 4.83121 9.349L4.90471 9.367C4.96371 9.381 5.00221 9.407 5.02021 9.445C5.03921 9.483 5.04971 9.5355 5.05171 9.6025C5.05271 9.6335 5.05321 9.6595 5.05321 9.6805C5.05321 9.7015 5.05271 9.722 5.05171 9.742C5.05171 9.762 5.05171 9.7855 5.05171 9.8125C5.04871 9.8835 5.03221 9.9345 5.00221 9.9655C4.97221 9.9955 4.92321 10.0105 4.85521 10.0105Z" fill="#292929"/>
</g>
<defs>
<linearGradient id="paint0_linear" x1="3" y1="10" x2="3" y2="9.51253e-08" gradientUnits="userSpaceOnUse">
<stop stop-color="white" stop-opacity="0"/>
<stop offset="1" stop-color="white"/>
</linearGradient>
<clipPath id="clip0">
<rect width="6" height="10" fill="white"/>
</clipPath>
</defs>
</svg>
