<svg width="6" height="10" viewBox="0 0 6 10" fill="none" xmlns="http://www.w3.org/2000/svg">
<rect width="6" height="10" fill="#666666"/>
<rect x="1.5" y="1" width="3" height="3" fill="white"/>
<path d="M3 3L4.29904 5.25H1.70096L3 3Z" fill="#292929"/>
<path d="M2.38307 9V6.819H2.28107L2.27207 6.738L2.42207 6.6H2.58107V9H2.38307ZM3.29872 9.021C3.17272 9.021 3.07572 8.988 3.00772 8.922C2.93972 8.854 2.90472 8.757 2.90272 8.631C2.89872 8.365 2.89672 8.089 2.89672 7.803C2.89672 7.515 2.89872 7.237 2.90272 6.969C2.90472 6.843 2.93972 6.747 3.00772 6.681C3.07572 6.613 3.17272 6.579 3.29872 6.579C3.42472 6.579 3.52072 6.613 3.58672 6.681C3.65472 6.747 3.69072 6.843 3.69472 6.969C3.69872 7.237 3.70072 7.515 3.70072 7.803C3.70072 8.089 3.69872 8.365 3.69472 8.631C3.69072 8.757 3.65472 8.854 3.58672 8.922C3.52072 8.988 3.42472 9.021 3.29872 9.021ZM3.29872 8.85C3.42472 8.85 3.48972 8.787 3.49372 8.661C3.49972 8.347 3.50272 8.042 3.50272 7.746C3.50272 7.448 3.49972 7.179 3.49372 6.939C3.49172 6.813 3.42672 6.75 3.29872 6.75C3.17072 6.75 3.10572 6.813 3.10372 6.939C3.09772 7.245 3.09472 7.547 3.09472 7.845C3.09472 8.141 3.09772 8.413 3.10372 8.661C3.10572 8.787 3.17072 8.85 3.29872 8.85Z" fill="white"/>
</svg>
