<svg width="6" height="10" viewBox="0 0 6 10" fill="none" xmlns="http://www.w3.org/2000/svg">
<rect width="6" height="10" fill="#666666"/>
<path d="M2.95663 1.3L3.34586 2.75527L4.44794 3.81053L2.95663 3.41052L1.46531 3.81053L2.5674 2.75527L2.95663 1.3Z" fill="white"/>
<path d="M4.38636 1.32632L4.48671 1.90476L5.0523 1.7L4.58706 2.07369L5.0523 2.44737L4.48671 2.24261L4.38636 2.82105L4.28602 2.24261L3.72043 2.44737L4.18567 2.07369L3.72043 1.7L4.28602 1.90476L4.38636 1.32632Z" fill="#292929"/>
<path d="M3.00004 3.78947L3.10039 4.36791L3.66597 4.16316L3.20073 4.53684L3.66597 4.91053L3.10039 4.70577L3.00004 5.28421L2.89969 4.70577L2.3341 4.91053L2.79934 4.53684L2.3341 4.16316L2.89969 4.36791L3.00004 3.78947Z" fill="#292929"/>
<path d="M1.59211 1.32632L1.69246 1.90476L2.25804 1.7L1.7928 2.07369L2.25804 2.44737L1.69246 2.24261L1.59211 2.82105L1.49176 2.24261L0.926175 2.44737L1.39141 2.07369L0.926175 1.7L1.49176 1.90476L1.59211 1.32632Z" fill="#292929"/>
<ellipse cx="3.01078" cy="7.62105" rx="1.77617" ry="1.72632" fill="#292929"/>
<path d="M3.01081 8L1.64142 5.69474L4.38019 5.69474L3.01081 8Z" fill="white"/>
</svg>
