<svg width="6" height="10" viewBox="0 0 6 10" fill="none" xmlns="http://www.w3.org/2000/svg">
<rect width="6" height="10" fill="#666666"/>
<path d="M3 0L6 10H0L3 0Z" fill="url(#paint0_linear)"/>
<path d="M0.385652 9V7.8H0.484652V8.352H0.676652V7.8H0.775652V9H0.676652V8.4405H0.484652V9H0.385652ZM0.884215 9L1.01321 7.8H1.19921L1.32671 9H1.22471L1.19321 8.652H1.01771L0.986215 9H0.884215ZM1.02671 8.562H1.18421L1.16021 8.2995L1.12721 7.89H1.08521L1.05071 8.301L1.02671 8.562ZM1.42569 9V7.8H1.60419L1.66869 8.1795L1.78119 8.91H1.81269L1.79769 8.2215L1.79019 7.8H1.88769V9H1.70469L1.63419 8.5695L1.53369 7.89H1.50219L1.51569 8.547L1.52319 9H1.42569ZM2.24043 9.0105C2.17143 9.0105 2.12193 8.9955 2.09193 8.9655C2.06193 8.9345 2.04593 8.8835 2.04393 8.8125C2.03893 8.5375 2.03893 8.264 2.04393 7.992C2.04593 7.919 2.06193 7.867 2.09193 7.836C2.12193 7.805 2.17143 7.7895 2.24043 7.7895C2.30643 7.7895 2.35443 7.805 2.38443 7.836C2.41443 7.866 2.43093 7.916 2.43393 7.986C2.43693 8.063 2.43693 8.1395 2.43393 8.2155H2.33493C2.33793 8.1345 2.33793 8.053 2.33493 7.971C2.33193 7.907 2.30043 7.875 2.24043 7.875C2.17843 7.875 2.14643 7.907 2.14443 7.971C2.13743 8.257 2.13743 8.5425 2.14443 8.8275C2.14443 8.8615 2.15193 8.8865 2.16693 8.9025C2.18293 8.9175 2.20743 8.925 2.24043 8.925C2.30643 8.925 2.34043 8.8925 2.34243 8.8275C2.34443 8.7465 2.34443 8.665 2.34243 8.583H2.24193V8.4945H2.43993C2.44093 8.5335 2.44143 8.579 2.44143 8.631C2.44143 8.682 2.44093 8.7425 2.43993 8.8125C2.43693 8.8835 2.41993 8.9345 2.38893 8.9655C2.35893 8.9955 2.30943 9.0105 2.24043 9.0105ZM2.55948 9V7.8H2.89698V7.89H2.65848V8.352H2.88198V8.4405H2.65848V8.91H2.89698V9H2.55948ZM3.01065 9V7.8H3.20265C3.27165 7.8 3.32115 7.8155 3.35115 7.8465C3.38215 7.8775 3.39865 7.9285 3.40065 7.9995C3.40165 8.0945 3.40215 8.185 3.40215 8.271C3.40315 8.357 3.40315 8.443 3.40215 8.529C3.40215 8.614 3.40165 8.7045 3.40065 8.8005C3.39865 8.8715 3.38215 8.9225 3.35115 8.9535C3.32015 8.9845 3.27015 9 3.20115 9H3.01065ZM3.10965 8.91H3.20115C3.23515 8.91 3.25965 8.902 3.27465 8.886C3.29065 8.87 3.29915 8.8445 3.30015 8.8095C3.30415 8.5365 3.30415 8.263 3.30015 7.989C3.29915 7.955 3.29065 7.93 3.27465 7.914C3.25965 7.898 3.23565 7.89 3.20265 7.89H3.10965V8.91ZM3.85147 9V7.8H4.04347L4.10797 8.292L4.16347 8.9055H4.19047L4.24597 8.292L4.31047 7.8H4.50247V9H4.40347V8.6445L4.41847 7.89H4.38697L4.30297 8.655L4.25347 8.9955H4.10047L4.05097 8.655L3.96697 7.89H3.93547L3.95197 8.652V9H3.85147ZM4.61078 9L4.73978 7.8H4.92578L5.05328 9H4.95128L4.91978 8.652H4.74428L4.71278 9H4.61078ZM4.75328 8.562H4.91078L4.88678 8.2995L4.85378 7.89H4.81178L4.77728 8.301L4.75328 8.562ZM5.15225 9V7.8H5.33075L5.39525 8.1795L5.50775 8.91H5.53925L5.52425 8.2215L5.51675 7.8H5.61425V9H5.43125L5.36075 8.5695L5.26025 7.89H5.22875L5.24225 8.547L5.24975 9H5.15225Z" fill="#292929"/>
<defs>
<linearGradient id="paint0_linear" x1="3" y1="10" x2="3" y2="9.51253e-08" gradientUnits="userSpaceOnUse">
<stop stop-color="white" stop-opacity="0"/>
<stop offset="1" stop-color="white"/>
</linearGradient>
</defs>
</svg>
