<svg width="101" height="101" viewBox="0 0 101 101" fill="none" xmlns="http://www.w3.org/2000/svg">
<mask id="mask0" mask-type="alpha" maskUnits="userSpaceOnUse" x="0" y="0" width="101" height="101">
<path d="M99 50.9686C99 77.7544 77.2858 99.4686 50.5 99.4686C23.7142 99.4686 2 77.7544 2 50.9686C2 24.1828 23.7142 2.46863 50.5 2.46863C77.2858 2.46863 99 24.1828 99 50.9686Z" fill="#140507" stroke="white" stroke-width="3"/>
</mask>
<g mask="url(#mask0)">
<path d="M100 50.9686C100 78.3067 77.8381 100.469 50.5 100.469C23.1619 100.469 1 78.3067 1 50.9686C1 23.6305 23.1619 1.46863 50.5 1.46863C77.8381 1.46863 100 23.6305 100 50.9686Z" fill="#292929" stroke="#666666"/>
<path d="M-85.5 82.4686C-82.1667 81.802 -78.8333 81.802 -75.5 82.4686C-72.1667 83.1353 -68.8333 83.1353 -65.5 82.4686C-62.1667 81.802 -58.8333 81.802 -55.5 82.4686C-52.1667 83.1353 -48.8333 83.1353 -45.5 82.4686C-42.1667 81.802 -38.8333 81.802 -35.5 82.4686C-32.1667 83.1353 -28.8333 83.1353 -25.5 82.4686C-22.1667 81.802 -18.8333 81.802 -15.5 82.4686C-12.1667 83.1353 -8.83333 83.1353 -5.5 82.4686C-2.16667 81.802 1.16667 81.802 4.5 82.4686C7.83333 83.1353 11.1667 83.1353 14.5 82.4686C17.8333 81.802 21.1667 81.802 24.5 82.4686C27.8333 83.1353 31.1667 83.1353 34.5 82.4686" stroke="white" stroke-width="2" stroke-linecap="round"/>
<path d="M-92.5 28.4686C-89.1667 27.802 -85.8333 27.802 -82.5 28.4686C-79.1667 29.1353 -75.8333 29.1353 -72.5 28.4686C-69.1667 27.802 -65.8333 27.802 -62.5 28.4686C-59.1667 29.1353 -55.8333 29.1353 -52.5 28.4686C-49.1667 27.802 -45.8333 27.802 -42.5 28.4686C-39.1667 29.1353 -35.8333 29.1353 -32.5 28.4686C-29.1667 27.802 -25.8333 27.802 -22.5 28.4686C-19.1667 29.1353 -15.8333 29.1353 -12.5 28.4686C-9.16667 27.802 -5.83333 27.802 -2.5 28.4686C0.833333 29.1353 4.16667 29.1353 7.5 28.4686C10.8333 27.802 14.1667 27.802 17.5 28.4686C20.8333 29.1353 24.1667 29.1353 27.5 28.4686" stroke="white" stroke-width="2" stroke-linecap="round"/>
<path d="M32 50.9686C32 50.9686 33 52.9686 30 52.9686C27 52.9686 24 50.4686 24 46.9686C24 43.4686 27.5 38.9686 32 38.9686C38.63 38.9686 44 44.3386 44 50.9686C44 57.5986 38.63 62.9686 32 62.9686H-98.5" stroke="white" stroke-width="2" stroke-linecap="round"/>
<path d="M80 40.9686C80 40.9686 81 42.9686 78 42.9686C75 42.9686 72 40.4686 72 36.9686C72 33.4686 75.5 28.9686 80 28.9686C86.63 28.9686 92 34.3386 92 40.9686C92 47.5986 86.63 52.9686 80 52.9686H44" stroke="white" stroke-width="2" stroke-linecap="round"/>
<path d="M60 81.9686C60 81.9686 61 79.9686 58 79.9686C55 79.9686 52 82.4686 52 85.9686C52 89.4686 55.5 93.9686 60 93.9686C66.63 93.9686 72 88.5986 72 81.9686C72 75.3386 66.63 69.9686 60 69.9686H-70.5" stroke="white" stroke-width="2" stroke-linecap="round"/>
<path d="M53 24.9686C53 24.9686 54 22.9686 51 22.9686C48 22.9686 45 25.4686 45 28.9686C45 32.4686 48.5 36.9686 53 36.9686C59.63 36.9686 65 31.5986 65 24.9686C65 18.3386 59.63 12.9686 53 12.9686H-77.5" stroke="white" stroke-width="2" stroke-linecap="round"/>
<path d="M58.5 61.4686C61.8333 60.802 65.1667 60.802 68.5 61.4686C71.8333 62.1353 75.1667 62.1353 78.5 61.4686C81.8333 60.802 85.1667 60.802 88.5 61.4686C91.8333 62.1353 95.1667 62.1353 98.5 61.4686C101.833 60.802 105.167 60.802 108.5 61.4686C111.833 62.1353 115.167 62.1353 118.5 61.4686C121.833 60.802 125.167 60.802 128.5 61.4686C131.833 62.1353 135.167 62.1353 138.5 61.4686C141.833 60.802 145.167 60.802 148.5 61.4686C151.833 62.1353 155.167 62.1353 158.5 61.4686C161.833 60.802 165.167 60.802 168.5 61.4686C171.833 62.1353 175.167 62.1353 178.5 61.4686" stroke="white" stroke-width="2" stroke-linecap="round"/>
</g>
</svg>
