<svg width="100" height="100" viewBox="0 0 100 100" fill="none" xmlns="http://www.w3.org/2000/svg">
<mask id="mask0" mask-type="alpha" maskUnits="userSpaceOnUse" x="0" y="0" width="100" height="100">
<path d="M98.5 50C98.5 76.7858 76.7858 98.5 50 98.5C23.2142 98.5 1.5 76.7858 1.5 50C1.5 23.2142 23.2142 1.5 50 1.5C76.7858 1.5 98.5 23.2142 98.5 50Z" fill="#140507" stroke="white" stroke-width="3"/>
</mask>
<g mask="url(#mask0)">
<path d="M98.5 50C98.5 76.7858 76.7858 98.5 50 98.5C23.2142 98.5 1.5 76.7858 1.5 50C1.5 23.2142 23.2142 1.5 50 1.5C76.7858 1.5 98.5 23.2142 98.5 50Z" fill="#140507" stroke="white" stroke-width="3"/>
<path d="M2.75 79C-0.5 85.6667 -3.75 85.6667 -7 79V126.5H113L110 79C106.75 85.6667 103.5 85.6667 100.25 79C97 85.6667 93.75 85.6667 90.5 79C87.25 85.6667 84 85.6667 80.75 79C77.5 85.6667 74.25 85.6667 71 79C67.75 85.6667 64.5 85.6667 61.25 79C58 85.6667 54.75 85.6667 51.5 79C48.25 85.6667 45 85.6667 41.75 79C38.5 85.6667 35.25 85.6667 32 79C28.75 85.6667 25.5 85.6667 22.25 79C19 85.6667 15.75 85.6667 12.5 79C9.25 85.6667 6 85.6667 2.75 79Z" stroke="white" stroke-width="2"/>
<path d="M1.5 64.5C1.83333 58.3333 5.4 44.7 17 39.5C15.8333 42.6667 14.5 49 18.5 49C23.5 49 27 41.5 24 30C26.8333 31.8333 32.6 37.4 33 45C33.5 54.5 34 59 38 59C42 59 49.5 36.5 42.5 21C45.5 23.5 51.6 29.8 52 35C52.5 41.5 58.5 49 63.5 49C68.5 49 59 35.5 65.5 25.5C65.3333 28.6667 65.7 35 68.5 35C72 35 74.5 24 71.5 21C76.8333 26.8333 85.1 43.7 75.5 64.5C81.3333 66.3333 93 64.4 93 42C93 19.6 118.667 52 131.5 71L38 145L-7 93L1.5 64.5Z" stroke="white" stroke-width="2"/>
</g>
</svg>
