<svg width="100" height="100" viewBox="0 0 100 100" fill="none" xmlns="http://www.w3.org/2000/svg">
<mask id="mask0" mask-type="alpha" maskUnits="userSpaceOnUse" x="0" y="0" width="100" height="100">
<path d="M98.5 50C98.5 76.7858 76.7858 98.5 50 98.5C23.2142 98.5 1.5 76.7858 1.5 50C1.5 23.2142 23.2142 1.5 50 1.5C76.7858 1.5 98.5 23.2142 98.5 50Z" fill="#140507" stroke="white" stroke-width="3"/>
</mask>
<g mask="url(#mask0)">
<path d="M98.5 50C98.5 76.7858 76.7858 98.5 50 98.5C23.2142 98.5 1.5 76.7858 1.5 50C1.5 23.2142 23.2142 1.5 50 1.5C76.7858 1.5 98.5 23.2142 98.5 50Z" fill="#140507" stroke="white" stroke-width="3"/>
<path d="M-18.4182 46C-14.4182 43.3333 -10.4182 43.3333 -6.41821 46C-2.41821 48.6667 1.58179 48.6667 5.58179 46C9.58179 43.3333 13.5818 43.3333 17.5818 46C21.5818 48.6667 25.5818 48.6667 29.5818 46C33.5818 43.3333 37.5818 43.3333 41.5818 46C45.5818 48.6667 49.5818 48.6667 53.5818 46C57.5818 43.3333 61.5818 43.3333 65.5818 46C69.5818 48.6667 73.5818 48.6667 77.5818 46C81.5818 43.3333 85.5818 43.3333 89.5818 46C93.5818 48.6667 97.5818 48.6667 101.582 46C105.582 43.3333 109.582 43.3333 113.582 46C117.582 48.6667 121.582 48.6667 125.582 46" stroke="white" stroke-width="2"/>
<path d="M-15.4182 56C-11.4182 53.3333 -7.41821 53.3333 -3.41821 56C0.581787 58.6667 4.58179 58.6667 8.58179 56C12.5818 53.3333 16.5818 53.3333 20.5818 56C24.5818 58.6667 28.5818 58.6667 32.5818 56C36.5818 53.3333 40.5818 53.3333 44.5818 56C48.5818 58.6667 52.5818 58.6667 56.5818 56C60.5818 53.3333 64.5818 53.3333 68.5818 56C72.5818 58.6667 76.5818 58.6667 80.5818 56C84.5818 53.3333 88.5818 53.3333 92.5818 56C96.5818 58.6667 100.582 58.6667 104.582 56C108.582 53.3333 112.582 53.3333 116.582 56C120.582 58.6667 124.582 58.6667 128.582 56" stroke="white" stroke-width="2"/>
<path d="M-12.4182 66C-8.41821 63.3333 -4.41821 63.3333 -0.418213 66C3.58179 68.6667 7.58179 68.6667 11.5818 66C15.5818 63.3333 19.5818 63.3333 23.5818 66C27.5818 68.6667 31.5818 68.6667 35.5818 66C39.5818 63.3333 43.5818 63.3333 47.5818 66C51.5818 68.6667 55.5818 68.6667 59.5818 66C63.5818 63.3333 67.5818 63.3333 71.5818 66C75.5818 68.6667 79.5818 68.6667 83.5818 66C87.5818 63.3333 91.5818 63.3333 95.5818 66C99.5818 68.6667 103.582 68.6667 107.582 66C111.582 63.3333 115.582 63.3333 119.582 66C123.582 68.6667 127.582 68.6667 131.582 66" stroke="white" stroke-width="2"/>
<path d="M-9.41821 76C-5.41821 73.3333 -1.41821 73.3333 2.58179 76C6.58179 78.6667 10.5818 78.6667 14.5818 76C18.5818 73.3333 22.5818 73.3333 26.5818 76C30.5818 78.6667 34.5818 78.6667 38.5818 76C42.5818 73.3333 46.5818 73.3333 50.5818 76C54.5818 78.6667 58.5818 78.6667 62.5818 76C66.5818 73.3333 70.5818 73.3333 74.5818 76C78.5818 78.6667 82.5818 78.6667 86.5818 76C90.5818 73.3333 94.5818 73.3333 98.5818 76C102.582 78.6667 106.582 78.6667 110.582 76C114.582 73.3333 118.582 73.3333 122.582 76C126.582 78.6667 130.582 78.6667 134.582 76" stroke="white" stroke-width="2"/>
<path d="M-6.41821 86C-2.41821 83.3333 1.58179 83.3333 5.58179 86C9.58179 88.6667 13.5818 88.6667 17.5818 86C21.5818 83.3333 25.5818 83.3333 29.5818 86C33.5818 88.6667 37.5818 88.6667 41.5818 86C45.5818 83.3333 49.5818 83.3333 53.5818 86C57.5818 88.6667 61.5818 88.6667 65.5818 86C69.5818 83.3333 73.5818 83.3333 77.5818 86C81.5818 88.6667 85.5818 88.6667 89.5818 86C93.5818 83.3333 97.5818 83.3333 101.582 86C105.582 88.6667 109.582 88.6667 113.582 86C117.582 83.3333 121.582 83.3333 125.582 86C129.582 88.6667 133.582 88.6667 137.582 86" stroke="white" stroke-width="2"/>
<path d="M-3.41821 96C0.581787 93.3333 4.58179 93.3333 8.58179 96C12.5818 98.6667 16.5818 98.6667 20.5818 96C24.5818 93.3333 28.5818 93.3333 32.5818 96C36.5818 98.6667 40.5818 98.6667 44.5818 96C48.5818 93.3333 52.5818 93.3333 56.5818 96C60.5818 98.6667 64.5818 98.6667 68.5818 96C72.5818 93.3333 76.5818 93.3333 80.5818 96C84.5818 98.6667 88.5818 98.6667 92.5818 96C96.5818 93.3333 100.582 93.3333 104.582 96C108.582 98.6667 112.582 98.6667 116.582 96C120.582 93.3333 124.582 93.3333 128.582 96C132.582 98.6667 136.582 98.6667 140.582 96" stroke="white" stroke-width="2"/>
</g>
</svg>
