<svg width="257" height="7" viewBox="0 0 257 7" fill="none" xmlns="http://www.w3.org/2000/svg">
<path d="M2.5 5.96863C1.73625 5.53562 1.23861 5.00162 1.0668 4.43071C0.894983 3.85979 1.0563 3.27621 1.53138 2.75C2.00646 2.22379 2.77513 1.7773 3.74514 1.4641C4.71516 1.15091 5.84532 0.984314 7 0.984314C8.15469 0.984314 9.28485 1.15091 10.2549 1.4641C11.2249 1.7773 11.9935 2.22379 12.4686 2.75C12.9437 3.27621 13.105 3.85979 12.9332 4.43071C12.7614 5.00162 12.2638 5.53562 11.5 5.96863C10.7363 5.53562 10.2386 5.00162 10.0668 4.43071C9.89498 3.85979 10.0563 3.27621 10.5314 2.75C11.0065 2.22379 11.7751 1.7773 12.7451 1.4641C13.7152 1.15091 14.8453 0.984314 16 0.984314C17.1547 0.984314 18.2848 1.15091 19.2549 1.4641C20.2249 1.7773 20.9935 2.22379 21.4686 2.75C21.9437 3.27621 22.105 3.85979 21.9332 4.43071C21.7614 5.00162 21.2638 5.53562 20.5 5.96863C19.7363 5.53562 19.2386 5.00162 19.0668 4.43071C18.895 3.85979 19.0563 3.27621 19.5314 2.75C20.0065 2.22379 20.7751 1.7773 21.7451 1.4641C22.7152 1.15091 23.8453 0.984314 25 0.984314C26.1547 0.984314 27.2848 1.15091 28.2549 1.4641C29.2249 1.7773 29.9935 2.22379 30.4686 2.75C30.9437 3.27621 31.105 3.85979 30.9332 4.43071C30.7614 5.00162 30.2638 5.53562 29.5 5.96863C28.7363 5.53562 28.2386 5.00162 28.0668 4.43071C27.895 3.85979 28.0563 3.27621 28.5314 2.75C29.0065 2.22379 29.7751 1.7773 30.7451 1.4641C31.7152 1.15091 32.8453 0.984314 34 0.984314C35.1547 0.984314 36.2848 1.15091 37.2549 1.4641C38.2249 1.7773 38.9936 2.22379 39.4686 2.75C39.9437 3.27621 40.105 3.85979 39.9332 4.43071C39.7614 5.00162 39.2638 5.53562 38.5 5.96863C37.7363 5.53562 37.2386 5.00162 37.0668 4.43071C36.895 3.85979 37.0563 3.27621 37.5314 2.75C38.0065 2.22379 38.7751 1.7773 39.7451 1.4641C40.7152 1.15091 41.8453 0.984314 43 0.984314C44.1547 0.984314 45.2848 1.15091 46.2549 1.4641C47.2249 1.7773 47.9936 2.22379 48.4686 2.75C48.9437 3.27621 49.105 3.85979 48.9332 4.43071C48.7614 5.00162 48.2638 5.53562 47.5 5.96863C46.7363 5.53562 46.2386 5.00162 46.0668 4.43071C45.895 3.85979 46.0563 3.27621 46.5314 2.75C47.0065 2.22379 47.7751 1.7773 48.7451 1.4641C49.7152 1.15091 50.8453 0.984314 52 0.984314C53.1547 0.984314 54.2848 1.15091 55.2549 1.4641C56.2249 1.7773 56.9936 2.22379 57.4686 2.75C57.9437 3.27621 58.105 3.85979 57.9332 4.43071C57.7614 5.00162 57.2638 5.53562 56.5 5.96863C55.7363 5.53562 55.2386 5.00162 55.0668 4.43071C54.895 3.85979 55.0563 3.27621 55.5314 2.75C56.0065 2.22379 56.7751 1.7773 57.7451 1.4641C58.7152 1.15091 59.8453 0.984314 61 0.984314C62.1547 0.984314 63.2848 1.15091 64.2549 1.4641C65.2249 1.7773 65.9935 2.22379 66.4686 2.75C66.9437 3.27621 67.105 3.85979 66.9332 4.43071C66.7614 5.00162 66.2638 5.53562 65.5 5.96863C64.7362 5.53562 64.2386 5.00162 64.0668 4.43071C63.895 3.85979 64.0563 3.27621 64.5314 2.75C65.0065 2.22379 65.7751 1.7773 66.7451 1.4641C67.7152 1.15091 68.8453 0.984314 70 0.984314C71.1547 0.984314 72.2848 1.15091 73.2549 1.4641C74.2249 1.7773 74.9935 2.22379 75.4686 2.75C75.9437 3.27621 76.105 3.85979 75.9332 4.43071C75.7614 5.00162 75.2638 5.53562 74.5 5.96863C73.7362 5.53562 73.2386 5.00162 73.0668 4.43071C72.895 3.85979 73.0563 3.27621 73.5314 2.75C74.0065 2.22379 74.7751 1.7773 75.7451 1.4641C76.7152 1.15091 77.8453 0.984314 79 0.984314C80.1547 0.984314 81.2848 1.15091 82.2549 1.4641C83.2249 1.7773 83.9935 2.22379 84.4686 2.75C84.9437 3.27621 85.105 3.85979 84.9332 4.43071C84.7614 5.00162 84.2638 5.53562 83.5 5.96863C82.7362 5.53562 82.2386 5.00162 82.0668 4.43071C81.895 3.85979 82.0563 3.27621 82.5314 2.75C83.0065 2.22379 83.7751 1.7773 84.7451 1.4641C85.7152 1.15091 86.8453 0.984314 88 0.984314C89.1547 0.984314 90.2848 1.15091 91.2549 1.4641C92.2249 1.7773 92.9935 2.22379 93.4686 2.75C93.9437 3.27621 94.105 3.85979 93.9332 4.43071C93.7614 5.00162 93.2638 5.53562 92.5 5.96863C91.7362 5.53562 91.2386 5.00162 91.0668 4.43071C90.895 3.85979 91.0563 3.27621 91.5314 2.75C92.0065 2.22379 92.7751 1.7773 93.7451 1.4641C94.7152 1.15091 95.8453 0.984314 97 0.984314C98.1547 0.984314 99.2848 1.15091 100.255 1.4641C101.225 1.7773 101.994 2.22379 102.469 2.75C102.944 3.27621 103.105 3.85979 102.933 4.43071C102.761 5.00162 102.264 5.53562 101.5 5.96863C100.736 5.53562 100.239 5.00162 100.067 4.43071C99.895 3.85979 100.056 3.27621 100.531 2.75C101.006 2.22379 101.775 1.7773 102.745 1.4641C103.715 1.15091 104.845 0.984314 106 0.984314C107.155 0.984314 108.285 1.15091 109.255 1.4641C110.225 1.7773 110.994 2.22379 111.469 2.75C111.944 3.27621 112.105 3.85979 111.933 4.43071C111.761 5.00162 111.264 5.53562 110.5 5.96863C109.736 5.53562 109.239 5.00162 109.067 4.43071C108.895 3.85979 109.056 3.27621 109.531 2.75C110.006 2.22379 110.775 1.7773 111.745 1.4641C112.715 1.15091 113.845 0.984314 115 0.984314C116.155 0.984314 117.285 1.15091 118.255 1.4641C119.225 1.7773 119.994 2.22379 120.469 2.75C120.944 3.27621 121.105 3.85979 120.933 4.43071C120.761 5.00162 120.264 5.53562 119.5 5.96863C118.736 5.53562 118.239 5.00162 118.067 4.43071C117.895 3.85979 118.056 3.27621 118.531 2.75C119.006 2.22379 119.775 1.7773 120.745 1.4641C121.715 1.15091 122.845 0.984314 124 0.984314C125.155 0.984314 126.285 1.15091 127.255 1.4641C128.225 1.7773 128.994 2.22379 129.469 2.75C129.944 3.27621 130.105 3.85979 129.933 4.43071C129.761 5.00162 129.264 5.53562 128.5 5.96863C127.736 5.53562 127.239 5.00162 127.067 4.43071C126.895 3.85979 127.056 3.27621 127.531 2.75C128.006 2.22379 128.775 1.7773 129.745 1.4641C130.715 1.15091 131.845 0.984314 133 0.984314C134.155 0.984314 135.285 1.15091 136.255 1.4641C137.225 1.7773 137.994 2.22379 138.469 2.75C138.944 3.27621 139.105 3.85979 138.933 4.43071C138.761 5.00162 138.264 5.53562 137.5 5.96863C136.736 5.53562 136.239 5.00162 136.067 4.43071C135.895 3.85979 136.056 3.27621 136.531 2.75C137.006 2.22379 137.775 1.7773 138.745 1.4641C139.715 1.15091 140.845 0.984314 142 0.984314C143.155 0.984314 144.285 1.15091 145.255 1.4641C146.225 1.7773 146.994 2.22379 147.469 2.75C147.944 3.27621 148.105 3.85979 147.933 4.43071C147.761 5.00162 147.264 5.53562 146.5 5.96863C145.736 5.53562 145.239 5.00162 145.067 4.43071C144.895 3.85979 145.056 3.27621 145.531 2.75C146.006 2.22379 146.775 1.7773 147.745 1.4641C148.715 1.15091 149.845 0.984314 151 0.984314C152.155 0.984314 153.285 1.15091 154.255 1.4641C155.225 1.7773 155.994 2.22379 156.469 2.75C156.944 3.27621 157.105 3.85979 156.933 4.43071C156.761 5.00162 156.264 5.53562 155.5 5.96863C154.736 5.53562 154.239 5.00162 154.067 4.43071C153.895 3.85979 154.056 3.27621 154.531 2.75C155.006 2.22379 155.775 1.7773 156.745 1.4641C157.715 1.15091 158.845 0.984314 160 0.984314C161.155 0.984314 162.285 1.15091 163.255 1.4641C164.225 1.7773 164.994 2.22379 165.469 2.75C165.944 3.27621 166.105 3.85979 165.933 4.43071C165.761 5.00162 165.264 5.53562 164.5 5.96863C163.736 5.53562 163.239 5.00162 163.067 4.43071C162.895 3.85979 163.056 3.27621 163.531 2.75C164.006 2.22379 164.775 1.7773 165.745 1.4641C166.715 1.15091 167.845 0.984314 169 0.984314C170.155 0.984314 171.285 1.15091 172.255 1.4641C173.225 1.7773 173.994 2.22379 174.469 2.75C174.944 3.27621 175.105 3.85979 174.933 4.43071C174.761 5.00162 174.264 5.53562 173.5 5.96863C172.736 5.53562 172.239 5.00162 172.067 4.43071C171.895 3.85979 172.056 3.27621 172.531 2.75C173.006 2.22379 173.775 1.7773 174.745 1.4641C175.715 1.15091 176.845 0.984314 178 0.984314C179.155 0.984314 180.285 1.15091 181.255 1.4641C182.225 1.7773 182.994 2.22379 183.469 2.75C183.944 3.27621 184.105 3.85979 183.933 4.43071C183.761 5.00162 183.264 5.53562 182.5 5.96863C181.736 5.53562 181.239 5.00162 181.067 4.43071C180.895 3.85979 181.056 3.27621 181.531 2.75C182.006 2.22379 182.775 1.7773 183.745 1.4641C184.715 1.15091 185.845 0.984314 187 0.984314C188.155 0.984314 189.285 1.15091 190.255 1.4641C191.225 1.7773 191.994 2.22379 192.469 2.75C192.944 3.27621 193.105 3.85979 192.933 4.43071C192.761 5.00162 192.264 5.53562 191.5 5.96863C190.736 5.53562 190.239 5.00162 190.067 4.43071C189.895 3.85979 190.056 3.27621 190.531 2.75C191.006 2.22379 191.775 1.7773 192.745 1.4641C193.715 1.15091 194.845 0.984314 196 0.984314C197.155 0.984314 198.285 1.15091 199.255 1.4641C200.225 1.7773 200.994 2.22379 201.469 2.75C201.944 3.27621 202.105 3.85979 201.933 4.43071C201.761 5.00162 201.264 5.53562 200.5 5.96863C199.736 5.53562 199.239 5.00162 199.067 4.43071C198.895 3.85979 199.056 3.27621 199.531 2.75C200.006 2.22379 200.775 1.7773 201.745 1.4641C202.715 1.15091 203.845 0.984314 205 0.984314C206.155 0.984314 207.285 1.15091 208.255 1.4641C209.225 1.7773 209.994 2.22379 210.469 2.75C210.944 3.27621 211.105 3.85979 210.933 4.43071C210.761 5.00162 210.264 5.53562 209.5 5.96863C208.736 5.53562 208.239 5.00162 208.067 4.43071C207.895 3.85979 208.056 3.27621 208.531 2.75C209.006 2.22379 209.775 1.7773 210.745 1.4641C211.715 1.15091 212.845 0.984314 214 0.984314C215.155 0.984314 216.285 1.15091 217.255 1.4641C218.225 1.7773 218.994 2.22379 219.469 2.75C219.944 3.27621 220.105 3.85979 219.933 4.43071C219.761 5.00162 219.264 5.53562 218.5 5.96863C217.736 5.53562 217.239 5.00162 217.067 4.43071C216.895 3.85979 217.056 3.27621 217.531 2.75C218.006 2.22379 218.775 1.7773 219.745 1.4641C220.715 1.15091 221.845 0.984314 223 0.984314C224.155 0.984314 225.285 1.15091 226.255 1.4641C227.225 1.7773 227.994 2.22379 228.469 2.75C228.944 3.27621 229.105 3.85979 228.933 4.43071C228.761 5.00162 228.264 5.53562 227.5 5.96863C226.736 5.53562 226.239 5.00162 226.067 4.43071C225.895 3.85979 226.056 3.27621 226.531 2.75C227.006 2.22379 227.775 1.7773 228.745 1.4641C229.715 1.15091 230.845 0.984314 232 0.984314C233.155 0.984314 234.285 1.15091 235.255 1.4641C236.225 1.7773 236.994 2.22379 237.469 2.75C237.944 3.27621 238.105 3.85979 237.933 4.43071C237.761 5.00162 237.264 5.53562 236.5 5.96863C235.736 5.53562 235.239 5.00162 235.067 4.43071C234.895 3.85979 235.056 3.27621 235.531 2.75C236.006 2.22379 236.775 1.7773 237.745 1.4641C238.715 1.15091 239.845 0.984314 241 0.984314C242.155 0.984314 243.285 1.15091 244.255 1.4641C245.225 1.7773 245.994 2.22379 246.469 2.75C246.944 3.27621 247.105 3.85979 246.933 4.43071C246.761 5.00162 246.264 5.53562 245.5 5.96863C244.736 5.53562 244.239 5.00162 244.067 4.43071C243.895 3.85979 244.056 3.27621 244.531 2.75C245.006 2.22379 245.775 1.7773 246.745 1.4641C247.715 1.15091 248.845 0.984314 250 0.984314C251.155 0.984314 252.285 1.15091 253.255 1.4641C254.225 1.7773 254.994 2.22379 255.469 2.75C255.944 3.27621 256.105 3.85979 255.933 4.43071C255.761 5.00162 255.264 5.53562 254.5 5.96863" stroke="white"/>
</svg>
