<svg width="257" height="7" viewBox="0 0 257 7" fill="none" xmlns="http://www.w3.org/2000/svg">
<path d="M2.5 1C1.73625 1.43301 1.23861 1.96701 1.0668 2.53792C0.894983 3.10884 1.0563 3.69242 1.53138 4.21863C2.00646 4.74484 2.77513 5.19133 3.74514 5.50453C4.71516 5.81772 5.84532 5.98431 7 5.98431C8.15469 5.98431 9.28485 5.81772 10.2549 5.50453C11.2249 5.19133 11.9935 4.74484 12.4686 4.21863C12.9437 3.69242 13.105 3.10884 12.9332 2.53792C12.7614 1.96701 12.2638 1.43301 11.5 1C10.7363 1.43301 10.2386 1.96701 10.0668 2.53792C9.89498 3.10884 10.0563 3.69242 10.5314 4.21863C11.0065 4.74484 11.7751 5.19133 12.7451 5.50453C13.7152 5.81772 14.8453 5.98431 16 5.98431C17.1547 5.98431 18.2848 5.81772 19.2549 5.50453C20.2249 5.19133 20.9935 4.74484 21.4686 4.21863C21.9437 3.69242 22.105 3.10884 21.9332 2.53792C21.7614 1.96701 21.2638 1.43301 20.5 1C19.7363 1.43301 19.2386 1.96701 19.0668 2.53792C18.895 3.10884 19.0563 3.69242 19.5314 4.21863C20.0065 4.74484 20.7751 5.19133 21.7451 5.50453C22.7152 5.81772 23.8453 5.98431 25 5.98431C26.1547 5.98431 27.2848 5.81772 28.2549 5.50453C29.2249 5.19133 29.9935 4.74484 30.4686 4.21863C30.9437 3.69242 31.105 3.10884 30.9332 2.53792C30.7614 1.96701 30.2638 1.43301 29.5 1C28.7363 1.43301 28.2386 1.96701 28.0668 2.53792C27.895 3.10884 28.0563 3.69242 28.5314 4.21863C29.0065 4.74484 29.7751 5.19133 30.7451 5.50453C31.7152 5.81772 32.8453 5.98431 34 5.98431C35.1547 5.98431 36.2848 5.81772 37.2549 5.50453C38.2249 5.19133 38.9936 4.74484 39.4686 4.21863C39.9437 3.69242 40.105 3.10884 39.9332 2.53792C39.7614 1.96701 39.2638 1.43301 38.5 1C37.7363 1.43301 37.2386 1.96701 37.0668 2.53792C36.895 3.10884 37.0563 3.69242 37.5314 4.21863C38.0065 4.74484 38.7751 5.19133 39.7451 5.50453C40.7152 5.81772 41.8453 5.98431 43 5.98431C44.1547 5.98431 45.2848 5.81772 46.2549 5.50453C47.2249 5.19133 47.9936 4.74484 48.4686 4.21863C48.9437 3.69242 49.105 3.10884 48.9332 2.53792C48.7614 1.96701 48.2638 1.43301 47.5 1C46.7363 1.43301 46.2386 1.96701 46.0668 2.53792C45.895 3.10884 46.0563 3.69242 46.5314 4.21863C47.0065 4.74484 47.7751 5.19133 48.7451 5.50453C49.7152 5.81772 50.8453 5.98431 52 5.98431C53.1547 5.98431 54.2848 5.81772 55.2549 5.50453C56.2249 5.19133 56.9936 4.74484 57.4686 4.21863C57.9437 3.69242 58.105 3.10884 57.9332 2.53792C57.7614 1.96701 57.2638 1.43301 56.5 1C55.7363 1.43301 55.2386 1.96701 55.0668 2.53792C54.895 3.10884 55.0563 3.69242 55.5314 4.21863C56.0065 4.74484 56.7751 5.19133 57.7451 5.50453C58.7152 5.81772 59.8453 5.98431 61 5.98431C62.1547 5.98431 63.2848 5.81772 64.2549 5.50453C65.2249 5.19133 65.9935 4.74484 66.4686 4.21863C66.9437 3.69242 67.105 3.10884 66.9332 2.53792C66.7614 1.96701 66.2638 1.43301 65.5 1C64.7362 1.43301 64.2386 1.96701 64.0668 2.53792C63.895 3.10884 64.0563 3.69242 64.5314 4.21863C65.0065 4.74484 65.7751 5.19133 66.7451 5.50453C67.7152 5.81772 68.8453 5.98431 70 5.98431C71.1547 5.98431 72.2848 5.81772 73.2549 5.50453C74.2249 5.19133 74.9935 4.74484 75.4686 4.21863C75.9437 3.69242 76.105 3.10884 75.9332 2.53792C75.7614 1.96701 75.2638 1.43301 74.5 1C73.7362 1.43301 73.2386 1.96701 73.0668 2.53792C72.895 3.10884 73.0563 3.69242 73.5314 4.21863C74.0065 4.74484 74.7751 5.19133 75.7451 5.50453C76.7152 5.81772 77.8453 5.98431 79 5.98431C80.1547 5.98431 81.2848 5.81772 82.2549 5.50453C83.2249 5.19133 83.9935 4.74484 84.4686 4.21863C84.9437 3.69242 85.105 3.10884 84.9332 2.53792C84.7614 1.96701 84.2638 1.43301 83.5 1C82.7362 1.43301 82.2386 1.96701 82.0668 2.53792C81.895 3.10884 82.0563 3.69242 82.5314 4.21863C83.0065 4.74484 83.7751 5.19133 84.7451 5.50453C85.7152 5.81772 86.8453 5.98431 88 5.98431C89.1547 5.98431 90.2848 5.81772 91.2549 5.50453C92.2249 5.19133 92.9935 4.74484 93.4686 4.21863C93.9437 3.69242 94.105 3.10884 93.9332 2.53792C93.7614 1.96701 93.2638 1.43301 92.5 1C91.7362 1.43301 91.2386 1.96701 91.0668 2.53792C90.895 3.10884 91.0563 3.69242 91.5314 4.21863C92.0065 4.74484 92.7751 5.19133 93.7451 5.50453C94.7152 5.81772 95.8453 5.98431 97 5.98431C98.1547 5.98431 99.2848 5.81772 100.255 5.50453C101.225 5.19133 101.994 4.74484 102.469 4.21863C102.944 3.69242 103.105 3.10884 102.933 2.53792C102.761 1.96701 102.264 1.43301 101.5 1C100.736 1.43301 100.239 1.96701 100.067 2.53792C99.895 3.10884 100.056 3.69242 100.531 4.21863C101.006 4.74484 101.775 5.19133 102.745 5.50453C103.715 5.81772 104.845 5.98431 106 5.98431C107.155 5.98431 108.285 5.81772 109.255 5.50453C110.225 5.19133 110.994 4.74484 111.469 4.21863C111.944 3.69242 112.105 3.10884 111.933 2.53792C111.761 1.96701 111.264 1.43301 110.5 1C109.736 1.43301 109.239 1.96701 109.067 2.53792C108.895 3.10884 109.056 3.69242 109.531 4.21863C110.006 4.74484 110.775 5.19133 111.745 5.50453C112.715 5.81772 113.845 5.98431 115 5.98431C116.155 5.98431 117.285 5.81772 118.255 5.50453C119.225 5.19133 119.994 4.74484 120.469 4.21863C120.944 3.69242 121.105 3.10884 120.933 2.53792C120.761 1.96701 120.264 1.43301 119.5 1C118.736 1.43301 118.239 1.96701 118.067 2.53792C117.895 3.10884 118.056 3.69242 118.531 4.21863C119.006 4.74484 119.775 5.19133 120.745 5.50453C121.715 5.81772 122.845 5.98431 124 5.98431C125.155 5.98431 126.285 5.81772 127.255 5.50453C128.225 5.19133 128.994 4.74484 129.469 4.21863C129.944 3.69242 130.105 3.10884 129.933 2.53792C129.761 1.96701 129.264 1.43301 128.5 1C127.736 1.43301 127.239 1.96701 127.067 2.53792C126.895 3.10884 127.056 3.69242 127.531 4.21863C128.006 4.74484 128.775 5.19133 129.745 5.50453C130.715 5.81772 131.845 5.98431 133 5.98431C134.155 5.98431 135.285 5.81772 136.255 5.50453C137.225 5.19133 137.994 4.74484 138.469 4.21863C138.944 3.69242 139.105 3.10884 138.933 2.53792C138.761 1.96701 138.264 1.43301 137.5 1C136.736 1.43301 136.239 1.96701 136.067 2.53792C135.895 3.10884 136.056 3.69242 136.531 4.21863C137.006 4.74484 137.775 5.19133 138.745 5.50453C139.715 5.81772 140.845 5.98431 142 5.98431C143.155 5.98431 144.285 5.81772 145.255 5.50453C146.225 5.19133 146.994 4.74484 147.469 4.21863C147.944 3.69242 148.105 3.10884 147.933 2.53792C147.761 1.96701 147.264 1.43301 146.5 1C145.736 1.43301 145.239 1.96701 145.067 2.53792C144.895 3.10884 145.056 3.69242 145.531 4.21863C146.006 4.74484 146.775 5.19133 147.745 5.50453C148.715 5.81772 149.845 5.98431 151 5.98431C152.155 5.98431 153.285 5.81772 154.255 5.50453C155.225 5.19133 155.994 4.74484 156.469 4.21863C156.944 3.69242 157.105 3.10884 156.933 2.53792C156.761 1.96701 156.264 1.43301 155.5 1C154.736 1.43301 154.239 1.96701 154.067 2.53792C153.895 3.10884 154.056 3.69242 154.531 4.21863C155.006 4.74484 155.775 5.19133 156.745 5.50453C157.715 5.81772 158.845 5.98431 160 5.98431C161.155 5.98431 162.285 5.81772 163.255 5.50453C164.225 5.19133 164.994 4.74484 165.469 4.21863C165.944 3.69242 166.105 3.10884 165.933 2.53792C165.761 1.96701 165.264 1.43301 164.5 1C163.736 1.43301 163.239 1.96701 163.067 2.53792C162.895 3.10884 163.056 3.69242 163.531 4.21863C164.006 4.74484 164.775 5.19133 165.745 5.50453C166.715 5.81772 167.845 5.98431 169 5.98431C170.155 5.98431 171.285 5.81772 172.255 5.50453C173.225 5.19133 173.994 4.74484 174.469 4.21863C174.944 3.69242 175.105 3.10884 174.933 2.53792C174.761 1.96701 174.264 1.43301 173.5 1C172.736 1.43301 172.239 1.96701 172.067 2.53792C171.895 3.10884 172.056 3.69242 172.531 4.21863C173.006 4.74484 173.775 5.19133 174.745 5.50453C175.715 5.81772 176.845 5.98431 178 5.98431C179.155 5.98431 180.285 5.81772 181.255 5.50453C182.225 5.19133 182.994 4.74484 183.469 4.21863C183.944 3.69242 184.105 3.10884 183.933 2.53792C183.761 1.96701 183.264 1.43301 182.5 1C181.736 1.43301 181.239 1.96701 181.067 2.53792C180.895 3.10884 181.056 3.69242 181.531 4.21863C182.006 4.74484 182.775 5.19133 183.745 5.50453C184.715 5.81772 185.845 5.98431 187 5.98431C188.155 5.98431 189.285 5.81772 190.255 5.50453C191.225 5.19133 191.994 4.74484 192.469 4.21863C192.944 3.69242 193.105 3.10884 192.933 2.53792C192.761 1.96701 192.264 1.43301 191.5 1C190.736 1.43301 190.239 1.96701 190.067 2.53792C189.895 3.10884 190.056 3.69242 190.531 4.21863C191.006 4.74484 191.775 5.19133 192.745 5.50453C193.715 5.81772 194.845 5.98431 196 5.98431C197.155 5.98431 198.285 5.81772 199.255 5.50453C200.225 5.19133 200.994 4.74484 201.469 4.21863C201.944 3.69242 202.105 3.10884 201.933 2.53792C201.761 1.96701 201.264 1.43301 200.5 1C199.736 1.43301 199.239 1.96701 199.067 2.53792C198.895 3.10884 199.056 3.69242 199.531 4.21863C200.006 4.74484 200.775 5.19133 201.745 5.50453C202.715 5.81772 203.845 5.98431 205 5.98431C206.155 5.98431 207.285 5.81772 208.255 5.50453C209.225 5.19133 209.994 4.74484 210.469 4.21863C210.944 3.69242 211.105 3.10884 210.933 2.53792C210.761 1.96701 210.264 1.43301 209.5 1C208.736 1.43301 208.239 1.96701 208.067 2.53792C207.895 3.10884 208.056 3.69242 208.531 4.21863C209.006 4.74484 209.775 5.19133 210.745 5.50453C211.715 5.81772 212.845 5.98431 214 5.98431C215.155 5.98431 216.285 5.81772 217.255 5.50453C218.225 5.19133 218.994 4.74484 219.469 4.21863C219.944 3.69242 220.105 3.10884 219.933 2.53792C219.761 1.96701 219.264 1.43301 218.5 1C217.736 1.43301 217.239 1.96701 217.067 2.53792C216.895 3.10884 217.056 3.69242 217.531 4.21863C218.006 4.74484 218.775 5.19133 219.745 5.50453C220.715 5.81772 221.845 5.98431 223 5.98431C224.155 5.98431 225.285 5.81772 226.255 5.50453C227.225 5.19133 227.994 4.74484 228.469 4.21863C228.944 3.69242 229.105 3.10884 228.933 2.53792C228.761 1.96701 228.264 1.43301 227.5 1C226.736 1.43301 226.239 1.96701 226.067 2.53792C225.895 3.10884 226.056 3.69242 226.531 4.21863C227.006 4.74484 227.775 5.19133 228.745 5.50453C229.715 5.81772 230.845 5.98431 232 5.98431C233.155 5.98431 234.285 5.81772 235.255 5.50453C236.225 5.19133 236.994 4.74484 237.469 4.21863C237.944 3.69242 238.105 3.10884 237.933 2.53792C237.761 1.96701 237.264 1.43301 236.5 1C235.736 1.43301 235.239 1.96701 235.067 2.53792C234.895 3.10884 235.056 3.69242 235.531 4.21863C236.006 4.74484 236.775 5.19133 237.745 5.50453C238.715 5.81772 239.845 5.98431 241 5.98431C242.155 5.98431 243.285 5.81772 244.255 5.50453C245.225 5.19133 245.994 4.74484 246.469 4.21863C246.944 3.69242 247.105 3.10884 246.933 2.53792C246.761 1.96701 246.264 1.43301 245.5 1C244.736 1.43301 244.239 1.96701 244.067 2.53792C243.895 3.10884 244.056 3.69242 244.531 4.21863C245.006 4.74484 245.775 5.19133 246.745 5.50453C247.715 5.81772 248.845 5.98431 250 5.98431C251.155 5.98431 252.285 5.81772 253.255 5.50453C254.225 5.19133 254.994 4.74484 255.469 4.21863C255.944 3.69242 256.105 3.10884 255.933 2.53792C255.761 1.96701 255.264 1.43301 254.5 1" stroke="white"/>
</svg>
