<svg width="30" height="46" viewBox="0 0 30 46" fill="none" xmlns="http://www.w3.org/2000/svg">
<g filter="url(#filter0_d)">
<rect x="4.5" y="0.5" width="21" height="37" rx="2.5" fill="#140507" stroke="#666666"/>
<path d="M16 26L13.1132 21L18.8868 21L16 26ZM13 17.5C13.2761 17.5 13.5 17.7239 13.5 18C13.5 18.2761 13.2761 18.5 13 18.5L13 17.5ZM16.5 15L16.5 21.5L15.5 21.5L15.5 15L16.5 15ZM10.5 15C10.5 16.3807 11.6193 17.5 13 17.5L13 18.5C11.067 18.5 9.5 16.933 9.5 15L10.5 15ZM13 12.5C11.6193 12.5 10.5 13.6193 10.5 15L9.5 15C9.5 13.067 11.067 11.5 13 11.5L13 12.5ZM15.5 15C15.5 13.6193 14.3807 12.5 13 12.5L13 11.5C14.933 11.5 16.5 13.067 16.5 15L15.5 15Z" fill="white"/>
</g>
<defs>
<filter id="filter0_d" x="0" y="0" width="30" height="46" filterUnits="userSpaceOnUse" color-interpolation-filters="sRGB">
<feFlood flood-opacity="0" result="BackgroundImageFix"/>
<feColorMatrix in="SourceAlpha" type="matrix" values="0 0 0 0 0 0 0 0 0 0 0 0 0 0 0 0 0 0 127 0"/>
<feOffset dy="4"/>
<feGaussianBlur stdDeviation="2"/>
<feColorMatrix type="matrix" values="0 0 0 0 0 0 0 0 0 0 0 0 0 0 0 0 0 0 0.25 0"/>
<feBlend mode="normal" in2="BackgroundImageFix" result="effect1_dropShadow"/>
<feBlend mode="normal" in="SourceGraphic" in2="effect1_dropShadow" result="shape"/>
</filter>
</defs>
</svg>
