<svg width="175" height="160" viewBox="0 0 175 160" fill="none" xmlns="http://www.w3.org/2000/svg">
<path id="big-loader-tristar" d="M86.265 -0.000488281L101.834 58.2102L145.918 100.421L86.265 84.4201L26.6124 100.421L70.6957 58.2102L86.265 -0.000488281Z" fill="#FBD4DA"/>
<path id="big-loader-star1" d="M143.455 1.05298L147.469 24.1905L170.092 16.0003L151.483 30.9477L170.092 45.8951L147.469 37.7049L143.455 60.8425L139.441 37.7049L116.817 45.8951L135.427 30.9477L116.817 16.0003L139.441 24.1905L143.455 1.05298Z" fill="#FBD4DA"/>
<path id="big-loader-star2" d="M88.0013 99.5796L92.0152 122.717L114.639 114.527L96.0292 129.474L114.639 144.422L92.0152 136.232L88.0013 159.369L83.9874 136.232L61.364 144.422L79.9734 129.474L61.364 114.527L83.9874 122.717L88.0013 99.5796Z" fill="#FBD4DA"/>
<path id="big-loader-star3" d="M31.6842 1.05298L35.6981 24.1905L58.3215 16.0003L39.712 30.9477L58.3215 45.8951L35.6981 37.7049L31.6842 60.8425L27.6702 37.7049L5.04683 45.8951L23.6563 30.9477L5.04683 16.0003L27.6702 24.1905L31.6842 1.05298Z" fill="#FBD4DA"/>
</svg>
