<svg width="6" height="10" viewBox="0 0 6 10" fill="none" xmlns="http://www.w3.org/2000/svg">
<rect width="6" height="10" fill="#666666"/>
<path d="M3 0L6 10H0L3 0Z" fill="url(#paint0_linear)"/>
<path d="M1.84244 9V7.8H2.03444C2.10344 7.8 2.15294 7.8155 2.18294 7.8465C2.21394 7.8775 2.23044 7.9285 2.23244 7.9995C2.23344 8.0945 2.23394 8.185 2.23394 8.271C2.23494 8.357 2.23494 8.443 2.23394 8.529C2.23394 8.614 2.23344 8.7045 2.23244 8.8005C2.23044 8.8715 2.21394 8.9225 2.18294 8.9535C2.15194 8.9845 2.10194 9 2.03294 9H1.84244ZM1.94144 8.91H2.03294C2.06694 8.91 2.09144 8.902 2.10644 8.886C2.12244 8.87 2.13094 8.8445 2.13194 8.8095C2.13594 8.5365 2.13594 8.263 2.13194 7.989C2.13094 7.955 2.12244 7.93 2.10644 7.914C2.09144 7.898 2.06744 7.89 2.03444 7.89H1.94144V8.91ZM2.38297 9V7.8H2.72047V7.89H2.48197V8.352H2.70547V8.4405H2.48197V8.91H2.72047V9H2.38297ZM2.80829 9L2.93729 7.8H3.12329L3.25079 9H3.14879L3.11729 8.652H2.94179L2.91029 9H2.80829ZM2.95079 8.562H3.10829L3.08429 8.2995L3.05129 7.89H3.00929L2.97479 8.301L2.95079 8.562ZM3.41539 9V7.89H3.26239V7.8H3.66739V7.89H3.51589V9H3.41539ZM3.76724 9V7.8H3.86624V8.352H4.05824V7.8H4.15724V9H4.05824V8.4405H3.86624V9H3.76724Z" fill="#292929"/>
<defs>
<linearGradient id="paint0_linear" x1="3" y1="10" x2="3" y2="9.51253e-08" gradientUnits="userSpaceOnUse">
<stop stop-color="white" stop-opacity="0"/>
<stop offset="1" stop-color="white"/>
</linearGradient>
</defs>
</svg>
