<svg width="6" height="10" viewBox="0 0 6 10" fill="none" xmlns="http://www.w3.org/2000/svg">
<g clip-path="url(#clip0)">
<rect width="6" height="10" fill="#666666"/>
<path d="M3 0L6 10H0L3 0Z" fill="url(#paint0_linear)"/>
<path d="M1.11707 8L1.03607 6.8H1.13657L1.16207 7.2515L1.19507 7.91H1.22207L1.26107 7.2515L1.31057 6.8075H1.46657L1.51607 7.2515L1.55657 7.91H1.58207L1.61657 7.2515L1.64357 6.8H1.74257L1.66007 8H1.48157L1.44407 7.607L1.40207 6.8945H1.37507L1.33307 7.607L1.29557 8H1.11707ZM1.85709 8V6.8H1.95609V7.352H2.14809V6.8H2.24709V8H2.14809V7.4405H1.95609V8H1.85709ZM2.4064 8V6.8H2.7439V6.89H2.5054V7.352H2.7289V7.4405H2.5054V7.91H2.7439V8H2.4064ZM2.85758 8V6.8H3.19508V6.89H2.95658V7.352H3.18008V7.4405H2.95658V7.91H3.19508V8H2.85758ZM3.30875 8V6.8H3.40775V7.91H3.64775V8H3.30875ZM4.27733 8.0105C4.20833 8.0105 4.15833 7.9955 4.12733 7.9655C4.09733 7.9355 4.08183 7.8855 4.08083 7.8155C4.07783 7.6725 4.07633 7.5345 4.07633 7.4015C4.07633 7.2675 4.07783 7.1285 4.08083 6.9845C4.08183 6.9145 4.09733 6.8645 4.12733 6.8345C4.15833 6.8045 4.20833 6.7895 4.27733 6.7895C4.34733 6.7895 4.39733 6.8045 4.42733 6.8345C4.45733 6.8645 4.47333 6.9145 4.47533 6.9845C4.47733 7.1285 4.47833 7.2675 4.47833 7.4015C4.47833 7.5345 4.47733 7.6725 4.47533 7.8155C4.47333 7.8855 4.45733 7.9355 4.42733 7.9655C4.39733 7.9955 4.34733 8.0105 4.27733 8.0105ZM4.27733 7.925C4.31233 7.925 4.33733 7.918 4.35233 7.904C4.36733 7.89 4.37483 7.8655 4.37483 7.8305C4.37983 7.6835 4.38183 7.539 4.38083 7.397C4.38083 7.255 4.37883 7.1125 4.37483 6.9695C4.37483 6.9345 4.36733 6.91 4.35233 6.896C4.33733 6.882 4.31233 6.875 4.27733 6.875C4.24333 6.875 4.21883 6.882 4.20383 6.896C4.18883 6.91 4.18083 6.9345 4.17983 6.9695C4.17583 7.1125 4.17383 7.255 4.17383 7.397C4.17383 7.539 4.17583 7.6835 4.17983 7.8305C4.18083 7.8655 4.18883 7.89 4.20383 7.904C4.21883 7.918 4.24333 7.925 4.27733 7.925ZM4.62711 8V6.8H4.96461V6.89H4.72611V7.352H4.94961V7.4405H4.72611V8H4.62711ZM1.27774 10V8.8H1.61524V8.89H1.37674V9.352H1.60024V9.4405H1.37674V10H1.27774ZM1.93431 10.0105C1.86531 10.0105 1.81531 9.9955 1.78431 9.9655C1.75431 9.9355 1.73881 9.8855 1.73781 9.8155C1.73481 9.6725 1.73331 9.5345 1.73331 9.4015C1.73331 9.2675 1.73481 9.1285 1.73781 8.9845C1.73881 8.9145 1.75431 8.8645 1.78431 8.8345C1.81531 8.8045 1.86531 8.7895 1.93431 8.7895C2.00431 8.7895 2.05431 8.8045 2.08431 8.8345C2.11431 8.8645 2.13031 8.9145 2.13231 8.9845C2.13431 9.1285 2.13531 9.2675 2.13531 9.4015C2.13531 9.5345 2.13431 9.6725 2.13231 9.8155C2.13031 9.8855 2.11431 9.9355 2.08431 9.9655C2.05431 9.9955 2.00431 10.0105 1.93431 10.0105ZM1.93431 9.925C1.96931 9.925 1.99431 9.918 2.00931 9.904C2.02431 9.89 2.03181 9.8655 2.03181 9.8305C2.03681 9.6835 2.03881 9.539 2.03781 9.397C2.03781 9.255 2.03581 9.1125 2.03181 8.9695C2.03181 8.9345 2.02431 8.91 2.00931 8.896C1.99431 8.882 1.96931 8.875 1.93431 8.875C1.90031 8.875 1.87581 8.882 1.86081 8.896C1.84581 8.91 1.83781 8.9345 1.83681 8.9695C1.83281 9.1125 1.83081 9.255 1.83081 9.397C1.83081 9.539 1.83281 9.6835 1.83681 9.8305C1.83781 9.8655 1.84581 9.89 1.86081 9.904C1.87581 9.918 1.90031 9.925 1.93431 9.925ZM2.28409 10V8.8H2.46559C2.53359 8.8 2.58309 8.815 2.61409 8.845C2.64509 8.875 2.66159 8.9245 2.66359 8.9935C2.66659 9.0605 2.66809 9.1225 2.66809 9.1795C2.66809 9.2365 2.66659 9.2925 2.66359 9.3475C2.66059 9.4425 2.62809 9.5015 2.56609 9.5245L2.68759 10H2.58109L2.47159 9.5425H2.38309V10H2.28409ZM2.38309 9.4525H2.46559C2.49959 9.4525 2.52409 9.4445 2.53909 9.4285C2.55509 9.4125 2.56359 9.387 2.56459 9.352C2.56959 9.231 2.56959 9.11 2.56459 8.989C2.56359 8.955 2.55509 8.93 2.53909 8.914C2.52409 8.898 2.49959 8.89 2.46559 8.89H2.38309V9.4525ZM2.88878 10V8.89H2.73578V8.8H3.14078V8.89H2.98928V10H2.88878ZM3.43863 10.0105C3.36963 10.0105 3.31963 9.9955 3.28863 9.9655C3.25863 9.9355 3.24313 9.8855 3.24213 9.8155C3.23913 9.4775 3.23913 9.139 3.24213 8.8H3.34263C3.34063 8.969 3.33913 9.141 3.33813 9.316C3.33813 9.49 3.33913 9.6615 3.34113 9.8305C3.34113 9.8935 3.37363 9.925 3.43863 9.925C3.50263 9.925 3.53463 9.8935 3.53463 9.8305C3.53563 9.6615 3.53613 9.49 3.53613 9.316C3.53713 9.141 3.53663 8.969 3.53463 8.8H3.63363C3.63663 9.139 3.63663 9.4775 3.63363 9.8155C3.63263 9.8855 3.61713 9.9355 3.58713 9.9655C3.55713 9.9955 3.50763 10.0105 3.43863 10.0105ZM3.79434 10V8.8H3.97284L4.03734 9.1795L4.14984 9.91H4.18134L4.16634 9.2215L4.15884 8.8H4.25634V10H4.07334L4.00284 9.5695L3.90234 8.89H3.87084L3.88434 9.547L3.89184 10H3.79434ZM4.41544 10V8.8H4.75294V8.89H4.51444V9.352H4.73794V9.4405H4.51444V9.91H4.75294V10H4.41544Z" fill="#292929"/>
</g>
<defs>
<linearGradient id="paint0_linear" x1="3" y1="10" x2="3" y2="9.51253e-08" gradientUnits="userSpaceOnUse">
<stop stop-color="white" stop-opacity="0"/>
<stop offset="1" stop-color="white"/>
</linearGradient>
<clipPath id="clip0">
<rect width="6" height="10" fill="white"/>
</clipPath>
</defs>
</svg>
