<svg width="6" height="10" viewBox="0 0 6 10" fill="none" xmlns="http://www.w3.org/2000/svg">
<rect width="6" height="10" fill="#666666"/>
<path d="M3 0L6 10H0L3 0Z" fill="url(#paint0_linear)"/>
<path d="M1.58023 9V7.8H1.67923V8.91H1.91923V9H1.58023ZM2.20897 9.0105C2.13997 9.0105 2.08997 8.9955 2.05897 8.9655C2.02897 8.9355 2.01347 8.8855 2.01247 8.8155C2.00947 8.6725 2.00797 8.5345 2.00797 8.4015C2.00797 8.2675 2.00947 8.1285 2.01247 7.9845C2.01347 7.9145 2.02897 7.8645 2.05897 7.8345C2.08997 7.8045 2.13997 7.7895 2.20897 7.7895C2.27897 7.7895 2.32897 7.8045 2.35897 7.8345C2.38897 7.8645 2.40497 7.9145 2.40697 7.9845C2.40897 8.1285 2.40997 8.2675 2.40997 8.4015C2.40997 8.5345 2.40897 8.6725 2.40697 8.8155C2.40497 8.8855 2.38897 8.9355 2.35897 8.9655C2.32897 8.9955 2.27897 9.0105 2.20897 9.0105ZM2.20897 8.925C2.24397 8.925 2.26897 8.918 2.28397 8.904C2.29897 8.89 2.30647 8.8655 2.30647 8.8305C2.31147 8.6835 2.31347 8.539 2.31247 8.397C2.31247 8.255 2.31047 8.1125 2.30647 7.9695C2.30647 7.9345 2.29897 7.91 2.28397 7.896C2.26897 7.882 2.24397 7.875 2.20897 7.875C2.17497 7.875 2.15047 7.882 2.13547 7.896C2.12047 7.91 2.11247 7.9345 2.11147 7.9695C2.10747 8.1125 2.10547 8.255 2.10547 8.397C2.10547 8.539 2.10747 8.6835 2.11147 8.8305C2.11247 8.8655 2.12047 8.89 2.13547 8.904C2.15047 8.918 2.17497 8.925 2.20897 8.925ZM2.64149 9L2.50799 7.8H2.61299L2.68049 8.4675L2.71649 8.91H2.74199L2.77799 8.4675L2.84549 7.8H2.94899L2.81549 9H2.64149ZM3.05972 9V7.8H3.39722V7.89H3.15872V8.352H3.38222V8.4405H3.15872V8.91H3.39722V9H3.05972ZM3.5109 9V7.8H3.6924C3.7604 7.8 3.8099 7.815 3.8409 7.845C3.8719 7.875 3.8884 7.9245 3.8904 7.9935C3.8934 8.0605 3.8949 8.1225 3.8949 8.1795C3.8949 8.2365 3.8934 8.2925 3.8904 8.3475C3.8874 8.4425 3.8549 8.5015 3.7929 8.5245L3.9144 9H3.8079L3.6984 8.5425H3.6099V9H3.5109ZM3.6099 8.4525H3.6924C3.7264 8.4525 3.7509 8.4445 3.7659 8.4285C3.7819 8.4125 3.7904 8.387 3.7914 8.352C3.7964 8.231 3.7964 8.11 3.7914 7.989C3.7904 7.955 3.7819 7.93 3.7659 7.914C3.7509 7.898 3.7264 7.89 3.6924 7.89H3.6099V8.4525ZM4.22313 9.0105C4.15413 9.0105 4.10463 8.9955 4.07463 8.9655C4.04463 8.9345 4.02813 8.8835 4.02513 8.8125C4.02413 8.7665 4.02363 8.726 4.02363 8.691C4.02363 8.655 4.02513 8.6135 4.02813 8.5665H4.12263C4.12063 8.6105 4.11963 8.6545 4.11963 8.6985C4.11963 8.7425 4.12063 8.7855 4.12263 8.8275C4.12463 8.8615 4.13313 8.8865 4.14813 8.9025C4.16313 8.9175 4.18813 8.925 4.22313 8.925C4.25613 8.925 4.27963 8.9175 4.29363 8.9025C4.30863 8.8865 4.31713 8.8615 4.31913 8.8275C4.32113 8.7995 4.32213 8.7745 4.32213 8.7525C4.32213 8.7305 4.32163 8.708 4.32063 8.685C4.32063 8.661 4.32013 8.6335 4.31913 8.6025C4.31813 8.5645 4.31263 8.533 4.30263 8.508C4.29363 8.483 4.27513 8.467 4.24713 8.46L4.16763 8.439C4.10963 8.425 4.07163 8.3995 4.05363 8.3625C4.03563 8.3255 4.02563 8.2725 4.02363 8.2035C4.02263 8.1705 4.02213 8.135 4.02213 8.097C4.02313 8.059 4.02413 8.022 4.02513 7.986C4.02613 7.916 4.04163 7.866 4.07163 7.836C4.10163 7.805 4.15213 7.7895 4.22313 7.7895C4.28913 7.7895 4.33663 7.805 4.36563 7.836C4.39563 7.866 4.41213 7.916 4.41513 7.986C4.41513 8.014 4.41513 8.0485 4.41513 8.0895C4.41513 8.1295 4.41463 8.1715 4.41363 8.2155H4.31763C4.31863 8.1755 4.31913 8.135 4.31913 8.094C4.31913 8.053 4.31863 8.012 4.31763 7.971C4.31563 7.907 4.28363 7.875 4.22163 7.875C4.18763 7.875 4.16313 7.883 4.14813 7.899C4.13413 7.914 4.12613 7.938 4.12413 7.971C4.12213 8.01 4.12113 8.049 4.12113 8.088C4.12113 8.126 4.12213 8.1645 4.12413 8.2035C4.12513 8.2485 4.13013 8.282 4.13913 8.304C4.14913 8.326 4.16913 8.341 4.19913 8.349L4.27263 8.367C4.33163 8.381 4.37013 8.407 4.38813 8.445C4.40713 8.483 4.41763 8.5355 4.41963 8.6025C4.42063 8.6335 4.42113 8.6595 4.42113 8.6805C4.42113 8.7015 4.42063 8.722 4.41963 8.742C4.41963 8.762 4.41963 8.7855 4.41963 8.8125C4.41663 8.8835 4.40013 8.9345 4.37013 8.9655C4.34013 8.9955 4.29113 9.0105 4.22313 9.0105Z" fill="#292929"/>
<defs>
<linearGradient id="paint0_linear" x1="3" y1="10" x2="3" y2="9.51253e-08" gradientUnits="userSpaceOnUse">
<stop stop-color="white" stop-opacity="0"/>
<stop offset="1" stop-color="white"/>
</linearGradient>
</defs>
</svg>
