<svg width="6" height="10" viewBox="0 0 6 10" fill="none" xmlns="http://www.w3.org/2000/svg">
<rect width="6" height="10" fill="#666666"/>
<path d="M3 0L6 10H0L3 0Z" fill="url(#paint0_linear)"/>
<path d="M1.23997 9.0105C1.17097 9.0105 1.12147 8.9955 1.09147 8.9655C1.06147 8.9345 1.04497 8.8835 1.04197 8.8125C1.04097 8.7665 1.04047 8.726 1.04047 8.691C1.04047 8.655 1.04197 8.6135 1.04497 8.5665H1.13947C1.13747 8.6105 1.13647 8.6545 1.13647 8.6985C1.13647 8.7425 1.13747 8.7855 1.13947 8.8275C1.14147 8.8615 1.14997 8.8865 1.16497 8.9025C1.17997 8.9175 1.20497 8.925 1.23997 8.925C1.27297 8.925 1.29647 8.9175 1.31047 8.9025C1.32547 8.8865 1.33397 8.8615 1.33597 8.8275C1.33797 8.7995 1.33897 8.7745 1.33897 8.7525C1.33897 8.7305 1.33847 8.708 1.33747 8.685C1.33747 8.661 1.33697 8.6335 1.33597 8.6025C1.33497 8.5645 1.32947 8.533 1.31947 8.508C1.31047 8.483 1.29197 8.467 1.26397 8.46L1.18447 8.439C1.12647 8.425 1.08847 8.3995 1.07047 8.3625C1.05247 8.3255 1.04247 8.2725 1.04047 8.2035C1.03947 8.1705 1.03897 8.135 1.03897 8.097C1.03997 8.059 1.04097 8.022 1.04197 7.986C1.04297 7.916 1.05847 7.866 1.08847 7.836C1.11847 7.805 1.16897 7.7895 1.23997 7.7895C1.30597 7.7895 1.35347 7.805 1.38247 7.836C1.41247 7.866 1.42897 7.916 1.43197 7.986C1.43197 8.014 1.43197 8.0485 1.43197 8.0895C1.43197 8.1295 1.43147 8.1715 1.43047 8.2155H1.33447C1.33547 8.1755 1.33597 8.135 1.33597 8.094C1.33597 8.053 1.33547 8.012 1.33447 7.971C1.33247 7.907 1.30047 7.875 1.23847 7.875C1.20447 7.875 1.17997 7.883 1.16497 7.899C1.15097 7.914 1.14297 7.938 1.14097 7.971C1.13897 8.01 1.13797 8.049 1.13797 8.088C1.13797 8.126 1.13897 8.1645 1.14097 8.2035C1.14197 8.2485 1.14697 8.282 1.15597 8.304C1.16597 8.326 1.18597 8.341 1.21597 8.349L1.28947 8.367C1.34847 8.381 1.38697 8.407 1.40497 8.445C1.42397 8.483 1.43447 8.5355 1.43647 8.6025C1.43747 8.6335 1.43797 8.6595 1.43797 8.6805C1.43797 8.7015 1.43747 8.722 1.43647 8.742C1.43647 8.762 1.43647 8.7855 1.43647 8.8125C1.43347 8.8835 1.41697 8.9345 1.38697 8.9655C1.35697 8.9955 1.30797 9.0105 1.23997 9.0105ZM1.67149 9V7.89H1.51849V7.8H1.92349V7.89H1.77199V9H1.67149ZM2.02335 9V7.8H2.20485C2.27285 7.8 2.32235 7.815 2.35335 7.845C2.38435 7.875 2.40085 7.9245 2.40285 7.9935C2.40585 8.0605 2.40735 8.1225 2.40735 8.1795C2.40735 8.2365 2.40585 8.2925 2.40285 8.3475C2.39985 8.4425 2.36735 8.5015 2.30535 8.5245L2.42685 9H2.32035L2.21085 8.5425H2.12235V9H2.02335ZM2.12235 8.4525H2.20485C2.23885 8.4525 2.26335 8.4445 2.27835 8.4285C2.29435 8.4125 2.30285 8.387 2.30385 8.352C2.30885 8.231 2.30885 8.11 2.30385 7.989C2.30285 7.955 2.29435 7.93 2.27835 7.914C2.26335 7.898 2.23885 7.89 2.20485 7.89H2.12235V8.4525ZM2.53604 9V7.8H2.87354V7.89H2.63504V8.352H2.85854V8.4405H2.63504V8.91H2.87354V9H2.53604ZM2.98721 9V7.8H3.16571L3.23021 8.1795L3.34271 8.91H3.37421L3.35921 8.2215L3.35171 7.8H3.44921V9H3.26621L3.19571 8.5695L3.09521 7.89H3.06371L3.07721 8.547L3.08471 9H2.98721ZM3.80195 9.0105C3.73295 9.0105 3.68345 8.9955 3.65345 8.9655C3.62345 8.9345 3.60745 8.8835 3.60545 8.8125C3.60045 8.5375 3.60045 8.264 3.60545 7.992C3.60745 7.919 3.62345 7.867 3.65345 7.836C3.68345 7.805 3.73295 7.7895 3.80195 7.7895C3.86795 7.7895 3.91595 7.805 3.94595 7.836C3.97595 7.866 3.99245 7.916 3.99545 7.986C3.99845 8.063 3.99845 8.1395 3.99545 8.2155H3.89645C3.89945 8.1345 3.89945 8.053 3.89645 7.971C3.89345 7.907 3.86195 7.875 3.80195 7.875C3.73995 7.875 3.70795 7.907 3.70595 7.971C3.69895 8.257 3.69895 8.5425 3.70595 8.8275C3.70595 8.8615 3.71345 8.8865 3.72845 8.9025C3.74445 8.9175 3.76895 8.925 3.80195 8.925C3.86795 8.925 3.90195 8.8925 3.90395 8.8275C3.90595 8.7465 3.90595 8.665 3.90395 8.583H3.80345V8.4945H4.00145C4.00245 8.5335 4.00295 8.579 4.00295 8.631C4.00295 8.682 4.00245 8.7425 4.00145 8.8125C3.99845 8.8835 3.98145 8.9345 3.95045 8.9655C3.92045 8.9955 3.87095 9.0105 3.80195 9.0105ZM4.21886 9V7.89H4.06586V7.8H4.47086V7.89H4.31936V9H4.21886ZM4.57071 9V7.8H4.66971V8.352H4.86171V7.8H4.96071V9H4.86171V8.4405H4.66971V9H4.57071Z" fill="#292929"/>
<defs>
<linearGradient id="paint0_linear" x1="3" y1="10" x2="3" y2="9.51253e-08" gradientUnits="userSpaceOnUse">
<stop stop-color="white" stop-opacity="0"/>
<stop offset="1" stop-color="white"/>
</linearGradient>
</defs>
</svg>
