<svg width="6" height="10" viewBox="0 0 6 10" fill="none" xmlns="http://www.w3.org/2000/svg">
<rect width="6" height="10" fill="#666666"/>
<path d="M3 0L6 10H0L3 0Z" fill="url(#paint0_linear)"/>
<path d="M0.539168 9V7.89H0.386168V7.8H0.791168V7.89H0.639668V9H0.539168ZM0.891023 9V7.8H1.22852V7.89H0.990023V8.352H1.21352V8.4405H0.990023V8.91H1.22852V9H0.891023ZM1.3422 9V7.8H1.5342L1.5987 8.292L1.6542 8.9055H1.6812L1.7367 8.292L1.8012 7.8H1.9932V9H1.8942V8.6445L1.9092 7.89H1.8777L1.7937 8.655L1.7442 8.9955H1.5912L1.5417 8.655L1.4577 7.89H1.4262L1.4427 8.652V9H1.3422ZM2.15225 9V7.8H2.33375C2.40175 7.8 2.45125 7.815 2.48225 7.845C2.51325 7.875 2.52975 7.9245 2.53175 7.9935C2.53475 8.0605 2.53625 8.121 2.53625 8.175C2.53625 8.228 2.53475 8.282 2.53175 8.337C2.52975 8.406 2.51325 8.4555 2.48225 8.4855C2.45125 8.5155 2.40175 8.5305 2.33375 8.5305H2.25125V9H2.15225ZM2.25125 8.442H2.33375C2.36775 8.442 2.39225 8.434 2.40725 8.418C2.42325 8.401 2.43175 8.3755 2.43275 8.3415C2.43675 8.2245 2.43675 8.107 2.43275 7.989C2.43175 7.955 2.42325 7.93 2.40725 7.914C2.39225 7.898 2.36775 7.89 2.33375 7.89H2.25125V8.442ZM2.6547 9V7.8H2.9922V7.89H2.7537V8.352H2.9772V8.4405H2.7537V8.91H2.9922V9H2.6547ZM3.10587 9V7.8H3.28737C3.35537 7.8 3.40487 7.815 3.43587 7.845C3.46687 7.875 3.48337 7.9245 3.48537 7.9935C3.48837 8.0605 3.48987 8.1225 3.48987 8.1795C3.48987 8.2365 3.48837 8.2925 3.48537 8.3475C3.48237 8.4425 3.44987 8.5015 3.38787 8.5245L3.50937 9H3.40287L3.29337 8.5425H3.20487V9H3.10587ZM3.20487 8.4525H3.28737C3.32137 8.4525 3.34587 8.4445 3.36087 8.4285C3.37687 8.4125 3.38537 8.387 3.38637 8.352C3.39137 8.231 3.39137 8.11 3.38637 7.989C3.38537 7.955 3.37687 7.93 3.36087 7.914C3.34587 7.898 3.32137 7.89 3.28737 7.89H3.20487V8.4525ZM3.58099 9L3.70999 7.8H3.89599L4.02349 9H3.92149L3.88999 8.652H3.71449L3.68299 9H3.58099ZM3.72349 8.562H3.88099L3.85699 8.2995L3.82399 7.89H3.78199L3.74749 8.301L3.72349 8.562ZM4.12247 9V7.8H4.30097L4.36547 8.1795L4.47797 8.91H4.50947L4.49447 8.2215L4.48697 7.8H4.58447V9H4.40147L4.33097 8.5695L4.23047 7.89H4.19897L4.21247 8.547L4.21997 9H4.12247ZM4.9342 9.0105C4.8662 9.0105 4.8172 8.9955 4.7872 8.9655C4.7572 8.9345 4.7417 8.884 4.7407 8.814C4.7387 8.673 4.7377 8.5355 4.7377 8.4015C4.7377 8.2665 4.7387 8.1285 4.7407 7.9875C4.7417 7.9225 4.7572 7.8735 4.7872 7.8405C4.8172 7.8075 4.8662 7.791 4.9342 7.791C5.0022 7.791 5.0512 7.8065 5.0812 7.8375C5.1122 7.8675 5.1287 7.9175 5.1307 7.9875C5.1317 8.0065 5.1322 8.0305 5.1322 8.0595C5.1322 8.0885 5.1317 8.1175 5.1307 8.1465C5.1307 8.1745 5.1307 8.198 5.1307 8.217H5.0302C5.0312 8.179 5.0317 8.1385 5.0317 8.0955C5.0327 8.0515 5.0327 8.0105 5.0317 7.9725C5.0307 7.9375 5.0227 7.9125 5.0077 7.8975C4.9927 7.8825 4.9682 7.875 4.9342 7.875C4.9012 7.875 4.8772 7.8825 4.8622 7.8975C4.8482 7.9125 4.8407 7.9375 4.8397 7.9725C4.8367 8.1205 4.8352 8.263 4.8352 8.4C4.8352 8.537 4.8367 8.68 4.8397 8.829C4.8407 8.864 4.8487 8.889 4.8637 8.904C4.8787 8.919 4.9022 8.9265 4.9342 8.9265C4.9702 8.9265 4.9962 8.919 5.0122 8.904C5.0282 8.889 5.0367 8.864 5.0377 8.829C5.0387 8.788 5.0387 8.7445 5.0377 8.6985C5.0377 8.6525 5.0372 8.609 5.0362 8.568H5.1367C5.1377 8.61 5.1382 8.651 5.1382 8.691C5.1382 8.731 5.1377 8.772 5.1367 8.814C5.1347 8.884 5.1182 8.9345 5.0872 8.9655C5.0562 8.9955 5.0052 9.0105 4.9342 9.0105ZM5.26651 9V7.8H5.60401V7.89H5.36551V8.352H5.58901V8.4405H5.36551V8.91H5.60401V9H5.26651Z" fill="#292929"/>
<defs>
<linearGradient id="paint0_linear" x1="3" y1="10" x2="3" y2="9.51253e-08" gradientUnits="userSpaceOnUse">
<stop stop-color="white" stop-opacity="0"/>
<stop offset="1" stop-color="white"/>
</linearGradient>
</defs>
</svg>
