<svg width="6" height="10" viewBox="0 0 6 10" fill="none" xmlns="http://www.w3.org/2000/svg">
<rect width="6" height="10" fill="#666666"/>
<path d="M2.99982 9.021C2.86582 9.021 2.76782 8.991 2.70582 8.931C2.64582 8.869 2.61282 8.767 2.60682 8.625C2.60282 8.543 2.60082 8.46 2.60082 8.376C2.60282 8.29 2.60582 8.192 2.60982 8.082C2.61382 7.998 2.62982 7.932 2.65782 7.884C2.68782 7.836 2.73182 7.801 2.78982 7.779V7.734C2.74182 7.714 2.70282 7.684 2.67282 7.644C2.64482 7.602 2.62682 7.545 2.61882 7.473C2.61482 7.383 2.61182 7.297 2.60982 7.215C2.60782 7.131 2.60882 7.051 2.61282 6.975C2.61882 6.833 2.65182 6.732 2.71182 6.672C2.77182 6.61 2.86782 6.579 2.99982 6.579C3.13182 6.579 3.22782 6.61 3.28782 6.672C3.34782 6.732 3.38082 6.833 3.38682 6.975C3.39082 7.051 3.39182 7.131 3.38982 7.215C3.38782 7.297 3.38482 7.383 3.38082 7.473C3.37282 7.545 3.35382 7.602 3.32382 7.644C3.29582 7.684 3.25782 7.713 3.20982 7.731V7.776C3.26382 7.802 3.30582 7.839 3.33582 7.887C3.36582 7.935 3.38382 8 3.38982 8.082C3.39382 8.192 3.39582 8.29 3.39582 8.376C3.39782 8.46 3.39682 8.543 3.39282 8.625C3.38682 8.767 3.35282 8.869 3.29082 8.931C3.23082 8.991 3.13382 9.021 2.99982 9.021ZM2.99982 7.662C3.12782 7.662 3.19282 7.59 3.19482 7.446C3.19482 7.354 3.19482 7.269 3.19482 7.191C3.19682 7.113 3.19682 7.034 3.19482 6.954C3.19282 6.882 3.17682 6.83 3.14682 6.798C3.11682 6.766 3.06782 6.75 2.99982 6.75C2.93382 6.75 2.88482 6.766 2.85282 6.798C2.82282 6.83 2.80682 6.882 2.80482 6.954C2.80282 7.034 2.80182 7.113 2.80182 7.191C2.80182 7.269 2.80282 7.354 2.80482 7.446C2.80682 7.522 2.82282 7.577 2.85282 7.611C2.88482 7.645 2.93382 7.662 2.99982 7.662ZM2.99982 8.85C3.06782 8.85 3.11682 8.834 3.14682 8.802C3.17682 8.77 3.19282 8.718 3.19482 8.646C3.19682 8.558 3.19782 8.469 3.19782 8.379C3.19782 8.287 3.19682 8.183 3.19482 8.067C3.19282 7.991 3.17582 7.936 3.14382 7.902C3.11382 7.868 3.06582 7.851 2.99982 7.851C2.93382 7.851 2.88482 7.868 2.85282 7.902C2.82282 7.936 2.80682 7.991 2.80482 8.067C2.80282 8.183 2.80182 8.287 2.80182 8.379C2.80182 8.469 2.80282 8.558 2.80482 8.646C2.80682 8.718 2.82282 8.77 2.85282 8.802C2.88482 8.834 2.93382 8.85 2.99982 8.85Z" fill="white"/>
<rect x="1.5" y="1" width="3" height="3" fill="white"/>
<path d="M3 3L4.29904 5.25H1.70096L3 3Z" fill="#292929"/>
</svg>
