<svg width="6" height="10" viewBox="0 0 6 10" fill="none" xmlns="http://www.w3.org/2000/svg">
<rect width="6" height="10" fill="#666666"/>
<path d="M3 0L6 10H0L3 0Z" fill="url(#paint0_linear)"/>
<path d="M1.16422 9V7.8H1.50172V7.89H1.26322V8.352H1.48672V8.4405H1.26322V8.91H1.50172V9H1.16422ZM1.61539 9V7.8H1.80739L1.87189 8.292L1.92739 8.9055H1.95439L2.00989 8.292L2.07439 7.8H2.26639V9H2.16739V8.6445L2.18239 7.89H2.15089L2.06689 8.655L2.01739 8.9955H1.86439L1.81489 8.655L1.73089 7.89H1.69939L1.71589 8.652V9H1.61539ZM2.42545 9V7.8H2.60695C2.67495 7.8 2.72445 7.815 2.75545 7.845C2.78645 7.875 2.80295 7.9245 2.80495 7.9935C2.80795 8.0605 2.80945 8.121 2.80945 8.175C2.80945 8.228 2.80795 8.282 2.80495 8.337C2.80295 8.406 2.78645 8.4555 2.75545 8.4855C2.72445 8.5155 2.67495 8.5305 2.60695 8.5305H2.52445V9H2.42545ZM2.52445 8.442H2.60695C2.64095 8.442 2.66545 8.434 2.68045 8.418C2.69645 8.401 2.70495 8.3755 2.70595 8.3415C2.70995 8.2245 2.70995 8.107 2.70595 7.989C2.70495 7.955 2.69645 7.93 2.68045 7.914C2.66545 7.898 2.64095 7.89 2.60695 7.89H2.52445V8.442ZM2.92789 9V7.8H3.10939C3.17739 7.8 3.22689 7.815 3.25789 7.845C3.28889 7.875 3.30539 7.9245 3.30739 7.9935C3.31039 8.0605 3.31189 8.1225 3.31189 8.1795C3.31189 8.2365 3.31039 8.2925 3.30739 8.3475C3.30439 8.4425 3.27189 8.5015 3.20989 8.5245L3.33139 9H3.22489L3.11539 8.5425H3.02689V9H2.92789ZM3.02689 8.4525H3.10939C3.14339 8.4525 3.16789 8.4445 3.18289 8.4285C3.19889 8.4125 3.20739 8.387 3.20839 8.352C3.21339 8.231 3.21339 8.11 3.20839 7.989C3.20739 7.955 3.19889 7.93 3.18289 7.914C3.16789 7.898 3.14339 7.89 3.10939 7.89H3.02689V8.4525ZM3.44058 9V7.8H3.77808V7.89H3.53958V8.352H3.76308V8.4405H3.53958V8.91H3.77808V9H3.44058ZM4.09276 9.0105C4.02376 9.0105 3.97426 8.9955 3.94426 8.9655C3.91426 8.9345 3.89776 8.8835 3.89476 8.8125C3.89376 8.7665 3.89326 8.726 3.89326 8.691C3.89326 8.655 3.89476 8.6135 3.89776 8.5665H3.99226C3.99026 8.6105 3.98926 8.6545 3.98926 8.6985C3.98926 8.7425 3.99026 8.7855 3.99226 8.8275C3.99426 8.8615 4.00276 8.8865 4.01776 8.9025C4.03276 8.9175 4.05776 8.925 4.09276 8.925C4.12576 8.925 4.14926 8.9175 4.16326 8.9025C4.17826 8.8865 4.18676 8.8615 4.18876 8.8275C4.19076 8.7995 4.19176 8.7745 4.19176 8.7525C4.19176 8.7305 4.19126 8.708 4.19026 8.685C4.19026 8.661 4.18976 8.6335 4.18876 8.6025C4.18776 8.5645 4.18226 8.533 4.17226 8.508C4.16326 8.483 4.14476 8.467 4.11676 8.46L4.03726 8.439C3.97926 8.425 3.94126 8.3995 3.92326 8.3625C3.90526 8.3255 3.89526 8.2725 3.89326 8.2035C3.89226 8.1705 3.89176 8.135 3.89176 8.097C3.89276 8.059 3.89376 8.022 3.89476 7.986C3.89576 7.916 3.91126 7.866 3.94126 7.836C3.97126 7.805 4.02176 7.7895 4.09276 7.7895C4.15876 7.7895 4.20626 7.805 4.23526 7.836C4.26526 7.866 4.28176 7.916 4.28476 7.986C4.28476 8.014 4.28476 8.0485 4.28476 8.0895C4.28476 8.1295 4.28426 8.1715 4.28326 8.2155H4.18726C4.18826 8.1755 4.18876 8.135 4.18876 8.094C4.18876 8.053 4.18826 8.012 4.18726 7.971C4.18526 7.907 4.15326 7.875 4.09126 7.875C4.05726 7.875 4.03276 7.883 4.01776 7.899C4.00376 7.914 3.99576 7.938 3.99376 7.971C3.99176 8.01 3.99076 8.049 3.99076 8.088C3.99076 8.126 3.99176 8.1645 3.99376 8.2035C3.99476 8.2485 3.99976 8.282 4.00876 8.304C4.01876 8.326 4.03876 8.341 4.06876 8.349L4.14226 8.367C4.20126 8.381 4.23976 8.407 4.25776 8.445C4.27676 8.483 4.28726 8.5355 4.28926 8.6025C4.29026 8.6335 4.29076 8.6595 4.29076 8.6805C4.29076 8.7015 4.29026 8.722 4.28926 8.742C4.28926 8.762 4.28926 8.7855 4.28926 8.8125C4.28626 8.8835 4.26976 8.9345 4.23976 8.9655C4.20976 8.9955 4.16076 9.0105 4.09276 9.0105ZM4.63914 9.0105C4.57014 9.0105 4.52064 8.9955 4.49064 8.9655C4.46064 8.9345 4.44414 8.8835 4.44114 8.8125C4.44014 8.7665 4.43964 8.726 4.43964 8.691C4.43964 8.655 4.44114 8.6135 4.44414 8.5665H4.53864C4.53664 8.6105 4.53564 8.6545 4.53564 8.6985C4.53564 8.7425 4.53664 8.7855 4.53864 8.8275C4.54064 8.8615 4.54914 8.8865 4.56414 8.9025C4.57914 8.9175 4.60414 8.925 4.63914 8.925C4.67214 8.925 4.69564 8.9175 4.70964 8.9025C4.72464 8.8865 4.73314 8.8615 4.73514 8.8275C4.73714 8.7995 4.73814 8.7745 4.73814 8.7525C4.73814 8.7305 4.73764 8.708 4.73664 8.685C4.73664 8.661 4.73614 8.6335 4.73514 8.6025C4.73414 8.5645 4.72864 8.533 4.71864 8.508C4.70964 8.483 4.69114 8.467 4.66314 8.46L4.58364 8.439C4.52564 8.425 4.48764 8.3995 4.46964 8.3625C4.45164 8.3255 4.44164 8.2725 4.43964 8.2035C4.43864 8.1705 4.43814 8.135 4.43814 8.097C4.43914 8.059 4.44014 8.022 4.44114 7.986C4.44214 7.916 4.45764 7.866 4.48764 7.836C4.51764 7.805 4.56814 7.7895 4.63914 7.7895C4.70514 7.7895 4.75264 7.805 4.78164 7.836C4.81164 7.866 4.82814 7.916 4.83114 7.986C4.83114 8.014 4.83114 8.0485 4.83114 8.0895C4.83114 8.1295 4.83064 8.1715 4.82964 8.2155H4.73364C4.73464 8.1755 4.73514 8.135 4.73514 8.094C4.73514 8.053 4.73464 8.012 4.73364 7.971C4.73164 7.907 4.69964 7.875 4.63764 7.875C4.60364 7.875 4.57914 7.883 4.56414 7.899C4.55014 7.914 4.54214 7.938 4.54014 7.971C4.53814 8.01 4.53714 8.049 4.53714 8.088C4.53714 8.126 4.53814 8.1645 4.54014 8.2035C4.54114 8.2485 4.54614 8.282 4.55514 8.304C4.56514 8.326 4.58514 8.341 4.61514 8.349L4.68864 8.367C4.74764 8.381 4.78614 8.407 4.80414 8.445C4.82314 8.483 4.83364 8.5355 4.83564 8.6025C4.83664 8.6335 4.83714 8.6595 4.83714 8.6805C4.83714 8.7015 4.83664 8.722 4.83564 8.742C4.83564 8.762 4.83564 8.7855 4.83564 8.8125C4.83264 8.8835 4.81614 8.9345 4.78614 8.9655C4.75614 8.9955 4.70714 9.0105 4.63914 9.0105Z" fill="#292929"/>
<defs>
<linearGradient id="paint0_linear" x1="3" y1="10" x2="3" y2="9.51253e-08" gradientUnits="userSpaceOnUse">
<stop stop-color="white" stop-opacity="0"/>
<stop offset="1" stop-color="white"/>
</linearGradient>
</defs>
</svg>
