<svg width="6" height="10" viewBox="0 0 6 10" fill="none" xmlns="http://www.w3.org/2000/svg">
<rect width="6" height="10" fill="#666666"/>
<path d="M2.60257 9C2.60257 8.958 2.60157 8.923 2.59957 8.895C2.59957 8.867 2.59857 8.84 2.59657 8.814C2.59657 8.788 2.59657 8.755 2.59657 8.715C2.59857 8.675 2.59957 8.622 2.59957 8.556C2.60157 8.416 2.61657 8.301 2.64457 8.211C2.67257 8.121 2.70957 8.048 2.75557 7.992C2.80357 7.934 2.85657 7.884 2.91457 7.842L3.04657 7.74C3.10857 7.686 3.14757 7.631 3.16357 7.575C3.18157 7.519 3.19257 7.459 3.19657 7.395C3.20457 7.245 3.20457 7.094 3.19657 6.942C3.19257 6.876 3.17457 6.828 3.14257 6.798C3.11257 6.766 3.06157 6.75 2.98957 6.75C2.92157 6.75 2.87257 6.766 2.84257 6.798C2.81257 6.828 2.79657 6.876 2.79457 6.942C2.79257 7.024 2.79157 7.106 2.79157 7.188C2.79157 7.27 2.79357 7.351 2.79757 7.431H2.59957C2.59757 7.351 2.59557 7.271 2.59357 7.191C2.59357 7.109 2.59457 7.036 2.59657 6.972C2.60057 6.832 2.63357 6.732 2.69557 6.672C2.75757 6.61 2.85657 6.579 2.99257 6.579C3.13457 6.579 3.23557 6.61 3.29557 6.672C3.35557 6.732 3.38857 6.832 3.39457 6.972C3.39657 7.012 3.39757 7.058 3.39757 7.11C3.39957 7.162 3.40057 7.214 3.40057 7.266C3.40057 7.316 3.39957 7.359 3.39757 7.395C3.39357 7.487 3.37957 7.565 3.35557 7.629C3.33357 7.691 3.30157 7.746 3.25957 7.794C3.21957 7.842 3.16957 7.889 3.10957 7.935L2.97157 8.037C2.91357 8.085 2.87057 8.156 2.84257 8.25C2.81457 8.342 2.80057 8.444 2.80057 8.556V8.82H3.39457V9H2.60257Z" fill="white"/>
<rect x="3.5" y="5.5" width="1" height="3" transform="rotate(180 3.5 5.5)" fill="#292929"/>
<path d="M3 0.5L3.33761 1.41239L4.25 1.75L3.33761 2.08761L3 3L2.66239 2.08761L1.75 1.75L2.66239 1.41239L3 0.5Z" fill="white"/>
</svg>
