<svg width="6" height="10" viewBox="0 0 6 10" fill="none" xmlns="http://www.w3.org/2000/svg">
<rect width="6" height="10" fill="#666666"/>
<path d="M3 0L6 10H0L3 0Z" fill="url(#paint0_linear)"/>
<path d="M1.71107 9L1.63007 7.8H1.73057L1.75607 8.2515L1.78907 8.91H1.81607L1.85507 8.2515L1.90457 7.8075H2.06057L2.11007 8.2515L2.15057 8.91H2.17607L2.21057 8.2515L2.23757 7.8H2.33657L2.25407 9H2.07557L2.03807 8.607L1.99607 7.8945H1.96907L1.92707 8.607L1.88957 9H1.71107ZM2.65208 9.0105C2.58308 9.0105 2.53308 8.9955 2.50208 8.9655C2.47208 8.9355 2.45658 8.8855 2.45558 8.8155C2.45258 8.6725 2.45108 8.5345 2.45108 8.4015C2.45108 8.2675 2.45258 8.1285 2.45558 7.9845C2.45658 7.9145 2.47208 7.8645 2.50208 7.8345C2.53308 7.8045 2.58308 7.7895 2.65208 7.7895C2.72208 7.7895 2.77208 7.8045 2.80208 7.8345C2.83208 7.8645 2.84808 7.9145 2.85008 7.9845C2.85208 8.1285 2.85308 8.2675 2.85308 8.4015C2.85308 8.5345 2.85208 8.6725 2.85008 8.8155C2.84808 8.8855 2.83208 8.9355 2.80208 8.9655C2.77208 8.9955 2.72208 9.0105 2.65208 9.0105ZM2.65208 8.925C2.68708 8.925 2.71208 8.918 2.72708 8.904C2.74208 8.89 2.74958 8.8655 2.74958 8.8305C2.75458 8.6835 2.75658 8.539 2.75558 8.397C2.75558 8.255 2.75358 8.1125 2.74958 7.9695C2.74958 7.9345 2.74208 7.91 2.72708 7.896C2.71208 7.882 2.68708 7.875 2.65208 7.875C2.61808 7.875 2.59358 7.882 2.57858 7.896C2.56358 7.91 2.55558 7.9345 2.55458 7.9695C2.55058 8.1125 2.54858 8.255 2.54858 8.397C2.54858 8.539 2.55058 8.6835 2.55458 8.8305C2.55558 8.8655 2.56358 8.89 2.57858 8.904C2.59358 8.918 2.61808 8.925 2.65208 8.925ZM3.00186 9V7.8H3.18336C3.25136 7.8 3.30086 7.815 3.33186 7.845C3.36286 7.875 3.37936 7.9245 3.38136 7.9935C3.38436 8.0605 3.38586 8.1225 3.38586 8.1795C3.38586 8.2365 3.38436 8.2925 3.38136 8.3475C3.37836 8.4425 3.34586 8.5015 3.28386 8.5245L3.40536 9H3.29886L3.18936 8.5425H3.10086V9H3.00186ZM3.10086 8.4525H3.18336C3.21736 8.4525 3.24186 8.4445 3.25686 8.4285C3.27286 8.4125 3.28136 8.387 3.28236 8.352C3.28736 8.231 3.28736 8.11 3.28236 7.989C3.28136 7.955 3.27286 7.93 3.25686 7.914C3.24186 7.898 3.21736 7.89 3.18336 7.89H3.10086V8.4525ZM3.51456 9V7.8H3.61356V8.91H3.85356V9H3.51456ZM3.94815 9V7.8H4.14015C4.20915 7.8 4.25865 7.8155 4.28865 7.8465C4.31965 7.8775 4.33615 7.9285 4.33815 7.9995C4.33915 8.0945 4.33965 8.185 4.33965 8.271C4.34065 8.357 4.34065 8.443 4.33965 8.529C4.33965 8.614 4.33915 8.7045 4.33815 8.8005C4.33615 8.8715 4.31965 8.9225 4.28865 8.9535C4.25765 8.9845 4.20765 9 4.13865 9H3.94815ZM4.04715 8.91H4.13865C4.17265 8.91 4.19715 8.902 4.21215 8.886C4.22815 8.87 4.23665 8.8445 4.23765 8.8095C4.24165 8.5365 4.24165 8.263 4.23765 7.989C4.23665 7.955 4.22815 7.93 4.21215 7.914C4.19715 7.898 4.17315 7.89 4.14015 7.89H4.04715V8.91Z" fill="#292929"/>
<defs>
<linearGradient id="paint0_linear" x1="3" y1="10" x2="3" y2="9.51253e-08" gradientUnits="userSpaceOnUse">
<stop stop-color="white" stop-opacity="0"/>
<stop offset="1" stop-color="white"/>
</linearGradient>
</defs>
</svg>
