<svg width="6" height="10" viewBox="0 0 6 10" fill="none" xmlns="http://www.w3.org/2000/svg">
<rect width="6" height="10" fill="#666666"/>
<path d="M3 0L6 10H0L3 0Z" fill="url(#paint0_linear)"/>
<path d="M1.59875 9.0105C1.53075 9.0105 1.48175 8.9955 1.45175 8.9655C1.42175 8.9345 1.40625 8.884 1.40525 8.814C1.40325 8.673 1.40225 8.5355 1.40225 8.4015C1.40225 8.2665 1.40325 8.1285 1.40525 7.9875C1.40625 7.9225 1.42175 7.8735 1.45175 7.8405C1.48175 7.8075 1.53075 7.791 1.59875 7.791C1.66675 7.791 1.71575 7.8065 1.74575 7.8375C1.77675 7.8675 1.79325 7.9175 1.79525 7.9875C1.79625 8.0065 1.79675 8.0305 1.79675 8.0595C1.79675 8.0885 1.79625 8.1175 1.79525 8.1465C1.79525 8.1745 1.79525 8.198 1.79525 8.217H1.69475C1.69575 8.179 1.69625 8.1385 1.69625 8.0955C1.69725 8.0515 1.69725 8.0105 1.69625 7.9725C1.69525 7.9375 1.68725 7.9125 1.67225 7.8975C1.65725 7.8825 1.63275 7.875 1.59875 7.875C1.56575 7.875 1.54175 7.8825 1.52675 7.8975C1.51275 7.9125 1.50525 7.9375 1.50425 7.9725C1.50125 8.1205 1.49975 8.263 1.49975 8.4C1.49975 8.537 1.50125 8.68 1.50425 8.829C1.50525 8.864 1.51325 8.889 1.52825 8.904C1.54325 8.919 1.56675 8.9265 1.59875 8.9265C1.63475 8.9265 1.66075 8.919 1.67675 8.904C1.69275 8.889 1.70125 8.864 1.70225 8.829C1.70325 8.788 1.70325 8.7445 1.70225 8.6985C1.70225 8.6525 1.70175 8.609 1.70075 8.568H1.80125C1.80225 8.61 1.80275 8.651 1.80275 8.691C1.80275 8.731 1.80225 8.772 1.80125 8.814C1.79925 8.884 1.78275 8.9345 1.75175 8.9655C1.72075 8.9955 1.66975 9.0105 1.59875 9.0105ZM1.93106 9V7.8H2.03006V8.352H2.22206V7.8H2.32106V9H2.22206V8.4405H2.03006V9H1.93106ZM2.42963 9L2.55863 7.8H2.74463L2.87213 9H2.77013L2.73863 8.652H2.56313L2.53163 9H2.42963ZM2.57213 8.562H2.72963L2.70563 8.2995L2.67263 7.89H2.63063L2.59613 8.301L2.57213 8.562ZM2.9711 9V7.8H3.1526C3.2206 7.8 3.2701 7.815 3.3011 7.845C3.3321 7.875 3.3486 7.9245 3.3506 7.9935C3.3536 8.0605 3.3551 8.1225 3.3551 8.1795C3.3551 8.2365 3.3536 8.2925 3.3506 8.3475C3.3476 8.4425 3.3151 8.5015 3.2531 8.5245L3.3746 9H3.2681L3.1586 8.5425H3.0701V9H2.9711ZM3.0701 8.4525H3.1526C3.1866 8.4525 3.2111 8.4445 3.2261 8.4285C3.2421 8.4125 3.2506 8.387 3.2516 8.352C3.2566 8.231 3.2566 8.11 3.2516 7.989C3.2506 7.955 3.2421 7.93 3.2261 7.914C3.2111 7.898 3.1866 7.89 3.1526 7.89H3.0701V8.4525ZM3.4838 9V7.8H3.5828V9H3.4838ZM3.93675 9.0105C3.86775 9.0105 3.81775 8.9955 3.78675 8.9655C3.75675 8.9355 3.74125 8.8855 3.74025 8.8155C3.73725 8.6725 3.73575 8.5345 3.73575 8.4015C3.73575 8.2675 3.73725 8.1285 3.74025 7.9845C3.74125 7.9145 3.75675 7.8645 3.78675 7.8345C3.81775 7.8045 3.86775 7.7895 3.93675 7.7895C4.00675 7.7895 4.05675 7.8045 4.08675 7.8345C4.11675 7.8645 4.13275 7.9145 4.13475 7.9845C4.13675 8.1285 4.13775 8.2675 4.13775 8.4015C4.13775 8.5345 4.13675 8.6725 4.13475 8.8155C4.13275 8.8855 4.11675 8.9355 4.08675 8.9655C4.05675 8.9955 4.00675 9.0105 3.93675 9.0105ZM3.93675 8.925C3.97175 8.925 3.99675 8.918 4.01175 8.904C4.02675 8.89 4.03425 8.8655 4.03425 8.8305C4.03925 8.6835 4.04125 8.539 4.04025 8.397C4.04025 8.255 4.03825 8.1125 4.03425 7.9695C4.03425 7.9345 4.02675 7.91 4.01175 7.896C3.99675 7.882 3.97175 7.875 3.93675 7.875C3.90275 7.875 3.87825 7.882 3.86325 7.896C3.84825 7.91 3.84025 7.9345 3.83925 7.9695C3.83525 8.1125 3.83325 8.255 3.83325 8.397C3.83325 8.539 3.83525 8.6835 3.83925 8.8305C3.84025 8.8655 3.84825 8.89 3.86325 8.904C3.87825 8.918 3.90275 8.925 3.93675 8.925ZM4.38438 9V7.89H4.23138V7.8H4.63638V7.89H4.48488V9H4.38438Z" fill="#292929"/>
<defs>
<linearGradient id="paint0_linear" x1="3" y1="10" x2="3" y2="9.51253e-08" gradientUnits="userSpaceOnUse">
<stop stop-color="white" stop-opacity="0"/>
<stop offset="1" stop-color="white"/>
</linearGradient>
</defs>
</svg>
