<svg width="6" height="10" viewBox="0 0 6 10" fill="none" xmlns="http://www.w3.org/2000/svg">
<rect width="6" height="10" fill="#666666"/>
<path d="M3 0L6 10H0L3 0Z" fill="url(#paint0_linear)"/>
<path d="M1.96622 9V7.8H2.15822C2.22722 7.8 2.27672 7.8155 2.30672 7.8465C2.33772 7.8775 2.35422 7.9285 2.35622 7.9995C2.35722 8.0945 2.35772 8.185 2.35772 8.271C2.35872 8.357 2.35872 8.443 2.35772 8.529C2.35772 8.614 2.35722 8.7045 2.35622 8.8005C2.35422 8.8715 2.33772 8.9225 2.30672 8.9535C2.27572 8.9845 2.22572 9 2.15672 9H1.96622ZM2.06522 8.91H2.15672C2.19072 8.91 2.21522 8.902 2.23022 8.886C2.24622 8.87 2.25472 8.8445 2.25572 8.8095C2.25972 8.5365 2.25972 8.263 2.25572 7.989C2.25472 7.955 2.24622 7.93 2.23022 7.914C2.21522 7.898 2.19122 7.89 2.15822 7.89H2.06522V8.91ZM2.50675 9V7.8H2.84425V7.89H2.60575V8.352H2.82925V8.4405H2.60575V8.91H2.84425V9H2.50675ZM3.05971 9L2.92621 7.8H3.03121L3.09871 8.4675L3.13471 8.91H3.16021L3.19621 8.4675L3.26371 7.8H3.36721L3.23371 9H3.05971ZM3.47794 9V7.8H3.57694V9H3.47794ZM3.73575 9V7.8H3.83475V8.91H4.07475V9H3.73575Z" fill="#292929"/>
<defs>
<linearGradient id="paint0_linear" x1="3" y1="10" x2="3" y2="9.51253e-08" gradientUnits="userSpaceOnUse">
<stop stop-color="white" stop-opacity="0"/>
<stop offset="1" stop-color="white"/>
</linearGradient>
</defs>
</svg>
