<svg width="6" height="10" viewBox="0 0 6 10" fill="none" xmlns="http://www.w3.org/2000/svg">
<rect width="6" height="10" fill="#666666"/>
<path d="M3 0L6 10H0L3 0Z" fill="url(#paint0_linear)"/>
<path d="M1.81285 9V7.89H1.65985V7.8H2.06485V7.89H1.91335V9H1.81285ZM2.34959 9.0105C2.28059 9.0105 2.23059 8.9955 2.19959 8.9655C2.16959 8.9355 2.15409 8.8855 2.15309 8.8155C2.15009 8.6725 2.14859 8.5345 2.14859 8.4015C2.14859 8.2675 2.15009 8.1285 2.15309 7.9845C2.15409 7.9145 2.16959 7.8645 2.19959 7.8345C2.23059 7.8045 2.28059 7.7895 2.34959 7.7895C2.41959 7.7895 2.46959 7.8045 2.49959 7.8345C2.52959 7.8645 2.54559 7.9145 2.54759 7.9845C2.54959 8.1285 2.55059 8.2675 2.55059 8.4015C2.55059 8.5345 2.54959 8.6725 2.54759 8.8155C2.54559 8.8855 2.52959 8.9355 2.49959 8.9655C2.46959 8.9955 2.41959 9.0105 2.34959 9.0105ZM2.34959 8.925C2.38459 8.925 2.40959 8.918 2.42459 8.904C2.43959 8.89 2.44709 8.8655 2.44709 8.8305C2.45209 8.6835 2.45409 8.539 2.45309 8.397C2.45309 8.255 2.45109 8.1125 2.44709 7.9695C2.44709 7.9345 2.43959 7.91 2.42459 7.896C2.40959 7.882 2.38459 7.875 2.34959 7.875C2.31559 7.875 2.29109 7.882 2.27609 7.896C2.26109 7.91 2.25309 7.9345 2.25209 7.9695C2.24809 8.1125 2.24609 8.255 2.24609 8.397C2.24609 8.539 2.24809 8.6835 2.25209 8.8305C2.25309 8.8655 2.26109 8.89 2.27609 8.904C2.29109 8.918 2.31559 8.925 2.34959 8.925ZM2.74598 9L2.66498 7.8H2.76548L2.79098 8.2515L2.82398 8.91H2.85098L2.88998 8.2515L2.93948 7.8075H3.09548L3.14498 8.2515L3.18548 8.91H3.21098L3.24548 8.2515L3.27248 7.8H3.37148L3.28898 9H3.11048L3.07298 8.607L3.03098 7.8945H3.00398L2.96198 8.607L2.92448 9H2.74598ZM3.48599 9V7.8H3.82349V7.89H3.58499V8.352H3.80849V8.4405H3.58499V8.91H3.82349V9H3.48599ZM3.93717 9V7.8H4.11867C4.18667 7.8 4.23617 7.815 4.26717 7.845C4.29817 7.875 4.31467 7.9245 4.31667 7.9935C4.31967 8.0605 4.32117 8.1225 4.32117 8.1795C4.32117 8.2365 4.31967 8.2925 4.31667 8.3475C4.31367 8.4425 4.28117 8.5015 4.21917 8.5245L4.34067 9H4.23417L4.12467 8.5425H4.03617V9H3.93717ZM4.03617 8.4525H4.11867C4.15267 8.4525 4.17717 8.4445 4.19217 8.4285C4.20817 8.4125 4.21667 8.387 4.21767 8.352C4.22267 8.231 4.22267 8.11 4.21767 7.989C4.21667 7.955 4.20817 7.93 4.19217 7.914C4.17717 7.898 4.15267 7.89 4.11867 7.89H4.03617V8.4525Z" fill="#292929"/>
<defs>
<linearGradient id="paint0_linear" x1="3" y1="10" x2="3" y2="9.51253e-08" gradientUnits="userSpaceOnUse">
<stop stop-color="white" stop-opacity="0"/>
<stop offset="1" stop-color="white"/>
</linearGradient>
</defs>
</svg>
