<svg width="6" height="10" viewBox="0 0 6 10" fill="none" xmlns="http://www.w3.org/2000/svg">
<rect width="6" height="10" fill="#666666"/>
<path d="M3 5L1.26795 2.75L4.73205 2.75L3 5Z" fill="#292929"/>
<rect x="2.25" y="0.5" width="1.5" height="3" fill="white"/>
<path d="M2.98029 9.021C2.83829 9.021 2.73529 8.991 2.67129 8.931C2.60729 8.869 2.57329 8.767 2.56929 8.625C2.56729 8.555 2.56629 8.487 2.56629 8.421C2.56629 8.353 2.56729 8.269 2.56929 8.169H2.77029V8.646C2.77029 8.782 2.83829 8.85 2.97429 8.85C3.10629 8.85 3.17229 8.782 3.17229 8.646C3.18029 8.442 3.18029 8.239 3.17229 8.037C3.17029 7.961 3.15129 7.904 3.11529 7.866C3.08129 7.828 3.02129 7.809 2.93529 7.809H2.77629L2.77029 7.641L3.15429 6.78H2.56929V6.6H3.38529V6.765L2.98629 7.632C3.12029 7.638 3.21629 7.672 3.27429 7.734C3.33429 7.796 3.36729 7.897 3.37329 8.037C3.37929 8.287 3.37929 8.483 3.37329 8.625C3.36529 8.767 3.33129 8.869 3.27129 8.931C3.21129 8.991 3.11429 9.021 2.98029 9.021Z" fill="white"/>
</svg>
