<svg width="6" height="10" viewBox="0 0 6 10" fill="none" xmlns="http://www.w3.org/2000/svg">
<rect width="6" height="10" fill="#666666"/>
<path d="M3 0L6 10H0L3 0Z" fill="url(#paint0_linear)"/>
<path d="M2.4199 9.0105C2.3509 9.0105 2.3014 8.9955 2.2714 8.9655C2.2414 8.9345 2.2249 8.8835 2.2219 8.8125C2.2209 8.7665 2.2204 8.726 2.2204 8.691C2.2204 8.655 2.2219 8.6135 2.2249 8.5665H2.3194C2.3174 8.6105 2.3164 8.6545 2.3164 8.6985C2.3164 8.7425 2.3174 8.7855 2.3194 8.8275C2.3214 8.8615 2.3299 8.8865 2.3449 8.9025C2.3599 8.9175 2.3849 8.925 2.4199 8.925C2.4529 8.925 2.4764 8.9175 2.4904 8.9025C2.5054 8.8865 2.5139 8.8615 2.5159 8.8275C2.5179 8.7995 2.5189 8.7745 2.5189 8.7525C2.5189 8.7305 2.5184 8.708 2.5174 8.685C2.5174 8.661 2.5169 8.6335 2.5159 8.6025C2.5149 8.5645 2.5094 8.533 2.4994 8.508C2.4904 8.483 2.4719 8.467 2.4439 8.46L2.3644 8.439C2.3064 8.425 2.2684 8.3995 2.2504 8.3625C2.2324 8.3255 2.2224 8.2725 2.2204 8.2035C2.2194 8.1705 2.2189 8.135 2.2189 8.097C2.2199 8.059 2.2209 8.022 2.2219 7.986C2.2229 7.916 2.2384 7.866 2.2684 7.836C2.2984 7.805 2.3489 7.7895 2.4199 7.7895C2.4859 7.7895 2.5334 7.805 2.5624 7.836C2.5924 7.866 2.6089 7.916 2.6119 7.986C2.6119 8.014 2.6119 8.0485 2.6119 8.0895C2.6119 8.1295 2.6114 8.1715 2.6104 8.2155H2.5144C2.5154 8.1755 2.5159 8.135 2.5159 8.094C2.5159 8.053 2.5154 8.012 2.5144 7.971C2.5124 7.907 2.4804 7.875 2.4184 7.875C2.3844 7.875 2.3599 7.883 2.3449 7.899C2.3309 7.914 2.3229 7.938 2.3209 7.971C2.3189 8.01 2.3179 8.049 2.3179 8.088C2.3179 8.126 2.3189 8.1645 2.3209 8.2035C2.3219 8.2485 2.3269 8.282 2.3359 8.304C2.3459 8.326 2.3659 8.341 2.3959 8.349L2.4694 8.367C2.5284 8.381 2.5669 8.407 2.5849 8.445C2.6039 8.483 2.6144 8.5355 2.6164 8.6025C2.6174 8.6335 2.6179 8.6595 2.6179 8.6805C2.6179 8.7015 2.6174 8.722 2.6164 8.742C2.6164 8.762 2.6164 8.7855 2.6164 8.8125C2.6134 8.8835 2.5969 8.9345 2.5669 8.9655C2.5369 8.9955 2.4879 9.0105 2.4199 9.0105ZM2.96329 9.0105C2.89429 9.0105 2.84429 8.9955 2.81329 8.9655C2.78329 8.9355 2.76779 8.8855 2.76679 8.8155C2.76379 8.4775 2.76379 8.139 2.76679 7.8H2.86729C2.86529 7.969 2.86379 8.141 2.86279 8.316C2.86279 8.49 2.86379 8.6615 2.86579 8.8305C2.86579 8.8935 2.89829 8.925 2.96329 8.925C3.02729 8.925 3.05929 8.8935 3.05929 8.8305C3.06029 8.6615 3.06079 8.49 3.06079 8.316C3.06179 8.141 3.06129 7.969 3.05929 7.8H3.15829C3.16129 8.139 3.16129 8.4775 3.15829 8.8155C3.15729 8.8855 3.14179 8.9355 3.11179 8.9655C3.08179 8.9955 3.03229 9.0105 2.96329 9.0105ZM3.319 9V7.8H3.4975L3.562 8.1795L3.6745 8.91H3.706L3.691 8.2215L3.6835 7.8H3.781V9H3.598L3.5275 8.5695L3.427 7.89H3.3955L3.409 8.547L3.4165 9H3.319Z" fill="#292929"/>
<defs>
<linearGradient id="paint0_linear" x1="3" y1="10" x2="3" y2="9.51253e-08" gradientUnits="userSpaceOnUse">
<stop stop-color="white" stop-opacity="0"/>
<stop offset="1" stop-color="white"/>
</linearGradient>
</defs>
</svg>
