<svg width="6" height="10" viewBox="0 0 6 10" fill="none" xmlns="http://www.w3.org/2000/svg">
<rect width="6" height="10" fill="#666666"/>
<path d="M3 0L6 10H0L3 0Z" fill="url(#paint0_linear)"/>
<path d="M1.18033 9V7.8H1.51783V7.89H1.27933V8.352H1.50283V8.4405H1.27933V8.91H1.51783V9H1.18033ZM1.6315 9V7.8H1.8235L1.888 8.292L1.9435 8.9055H1.9705L2.026 8.292L2.0905 7.8H2.2825V9H2.1835V8.6445L2.1985 7.89H2.167L2.083 8.655L2.0335 8.9955H1.8805L1.831 8.655L1.747 7.89H1.7155L1.732 8.652V9H1.6315ZM2.44156 9V7.8H2.62306C2.69106 7.8 2.74056 7.815 2.77156 7.845C2.80256 7.875 2.81906 7.9245 2.82106 7.9935C2.82406 8.0605 2.82556 8.121 2.82556 8.175C2.82556 8.228 2.82406 8.282 2.82106 8.337C2.81906 8.406 2.80256 8.4555 2.77156 8.4855C2.74056 8.5155 2.69106 8.5305 2.62306 8.5305H2.54056V9H2.44156ZM2.54056 8.442H2.62306C2.65706 8.442 2.68156 8.434 2.69656 8.418C2.71256 8.401 2.72106 8.3755 2.72206 8.3415C2.72606 8.2245 2.72606 8.107 2.72206 7.989C2.72106 7.955 2.71256 7.93 2.69656 7.914C2.68156 7.898 2.65706 7.89 2.62306 7.89H2.54056V8.442ZM2.944 9V7.8H3.2815V7.89H3.043V8.352H3.2665V8.4405H3.043V8.91H3.2815V9H2.944ZM3.39517 9V7.8H3.57667C3.64467 7.8 3.69417 7.815 3.72517 7.845C3.75617 7.875 3.77267 7.9245 3.77467 7.9935C3.77767 8.0605 3.77917 8.1225 3.77917 8.1795C3.77917 8.2365 3.77767 8.2925 3.77467 8.3475C3.77167 8.4425 3.73917 8.5015 3.67717 8.5245L3.79867 9H3.69217L3.58267 8.5425H3.49417V9H3.39517ZM3.49417 8.4525H3.57667C3.61067 8.4525 3.63517 8.4445 3.65017 8.4285C3.66617 8.4125 3.67467 8.387 3.67567 8.352C3.68067 8.231 3.68067 8.11 3.67567 7.989C3.67467 7.955 3.66617 7.93 3.65017 7.914C3.63517 7.898 3.61067 7.89 3.57667 7.89H3.49417V8.4525ZM4.1074 9.0105C4.0384 9.0105 3.9884 8.9955 3.9574 8.9655C3.9274 8.9355 3.9119 8.8855 3.9109 8.8155C3.9079 8.6725 3.9064 8.5345 3.9064 8.4015C3.9064 8.2675 3.9079 8.1285 3.9109 7.9845C3.9119 7.9145 3.9274 7.8645 3.9574 7.8345C3.9884 7.8045 4.0384 7.7895 4.1074 7.7895C4.1774 7.7895 4.2274 7.8045 4.2574 7.8345C4.2874 7.8645 4.3034 7.9145 4.3054 7.9845C4.3074 8.1285 4.3084 8.2675 4.3084 8.4015C4.3084 8.5345 4.3074 8.6725 4.3054 8.8155C4.3034 8.8855 4.2874 8.9355 4.2574 8.9655C4.2274 8.9955 4.1774 9.0105 4.1074 9.0105ZM4.1074 8.925C4.1424 8.925 4.1674 8.918 4.1824 8.904C4.1974 8.89 4.2049 8.8655 4.2049 8.8305C4.2099 8.6835 4.2119 8.539 4.2109 8.397C4.2109 8.255 4.2089 8.1125 4.2049 7.9695C4.2049 7.9345 4.1974 7.91 4.1824 7.896C4.1674 7.882 4.1424 7.875 4.1074 7.875C4.0734 7.875 4.0489 7.882 4.0339 7.896C4.0189 7.91 4.0109 7.9345 4.0099 7.9695C4.0059 8.1125 4.0039 8.255 4.0039 8.397C4.0039 8.539 4.0059 8.6835 4.0099 8.8305C4.0109 8.8655 4.0189 8.89 4.0339 8.904C4.0489 8.918 4.0734 8.925 4.1074 8.925ZM4.45719 9V7.8H4.63869C4.70669 7.8 4.75619 7.815 4.78719 7.845C4.81819 7.875 4.83469 7.9245 4.83669 7.9935C4.83969 8.0605 4.84119 8.1225 4.84119 8.1795C4.84119 8.2365 4.83969 8.2925 4.83669 8.3475C4.83369 8.4425 4.80119 8.5015 4.73919 8.5245L4.86069 9H4.75419L4.64469 8.5425H4.55619V9H4.45719ZM4.55619 8.4525H4.63869C4.67269 8.4525 4.69719 8.4445 4.71219 8.4285C4.72819 8.4125 4.73669 8.387 4.73769 8.352C4.74269 8.231 4.74269 8.11 4.73769 7.989C4.73669 7.955 4.72819 7.93 4.71219 7.914C4.69719 7.898 4.67269 7.89 4.63869 7.89H4.55619V8.4525Z" fill="#292929"/>
<defs>
<linearGradient id="paint0_linear" x1="3" y1="10" x2="3" y2="9.51253e-08" gradientUnits="userSpaceOnUse">
<stop stop-color="white" stop-opacity="0"/>
<stop offset="1" stop-color="white"/>
</linearGradient>
</defs>
</svg>
