<svg width="6" height="10" viewBox="0 0 6 10" fill="none" xmlns="http://www.w3.org/2000/svg">
<rect width="6" height="10" fill="#666666"/>
<path d="M3 0L6 10H0L3 0Z" fill="url(#paint0_linear)"/>
<path d="M1.09464 9V7.8H1.28664L1.35114 8.292L1.40664 8.9055H1.43364L1.48914 8.292L1.55364 7.8H1.74564V9H1.64664V8.6445L1.66164 7.89H1.63014L1.54614 8.655L1.49664 8.9955H1.34364L1.29414 8.655L1.21014 7.89H1.17864L1.19514 8.652V9H1.09464ZM1.85394 9L1.98294 7.8H2.16894L2.29644 9H2.19444L2.16294 8.652H1.98744L1.95594 9H1.85394ZM1.99644 8.562H2.15394L2.12994 8.2995L2.09694 7.89H2.05494L2.02044 8.301L1.99644 8.562ZM2.59492 9.0105C2.52592 9.0105 2.47642 8.9955 2.44642 8.9655C2.41642 8.9345 2.40042 8.8835 2.39842 8.8125C2.39342 8.5375 2.39342 8.264 2.39842 7.992C2.40042 7.919 2.41642 7.867 2.44642 7.836C2.47642 7.805 2.52592 7.7895 2.59492 7.7895C2.66092 7.7895 2.70892 7.805 2.73892 7.836C2.76892 7.866 2.78542 7.916 2.78842 7.986C2.79142 8.063 2.79142 8.1395 2.78842 8.2155H2.68942C2.69242 8.1345 2.69242 8.053 2.68942 7.971C2.68642 7.907 2.65492 7.875 2.59492 7.875C2.53292 7.875 2.50092 7.907 2.49892 7.971C2.49192 8.257 2.49192 8.5425 2.49892 8.8275C2.49892 8.8615 2.50642 8.8865 2.52142 8.9025C2.53742 8.9175 2.56192 8.925 2.59492 8.925C2.66092 8.925 2.69492 8.8925 2.69692 8.8275C2.69892 8.7465 2.69892 8.665 2.69692 8.583H2.59642V8.4945H2.79442C2.79542 8.5335 2.79592 8.579 2.79592 8.631C2.79592 8.682 2.79542 8.7425 2.79442 8.8125C2.79142 8.8835 2.77442 8.9345 2.74342 8.9655C2.71342 8.9955 2.66392 9.0105 2.59492 9.0105ZM2.91397 9V7.8H3.01297V9H2.91397ZM3.36243 9.0105C3.29443 9.0105 3.24543 8.9955 3.21543 8.9655C3.18543 8.9345 3.16993 8.884 3.16893 8.814C3.16693 8.673 3.16593 8.5355 3.16593 8.4015C3.16593 8.2665 3.16693 8.1285 3.16893 7.9875C3.16993 7.9225 3.18543 7.8735 3.21543 7.8405C3.24543 7.8075 3.29443 7.791 3.36243 7.791C3.43043 7.791 3.47943 7.8065 3.50943 7.8375C3.54043 7.8675 3.55693 7.9175 3.55893 7.9875C3.55993 8.0065 3.56043 8.0305 3.56043 8.0595C3.56043 8.0885 3.55993 8.1175 3.55893 8.1465C3.55893 8.1745 3.55893 8.198 3.55893 8.217H3.45843C3.45943 8.179 3.45993 8.1385 3.45993 8.0955C3.46093 8.0515 3.46093 8.0105 3.45993 7.9725C3.45893 7.9375 3.45093 7.9125 3.43593 7.8975C3.42093 7.8825 3.39643 7.875 3.36243 7.875C3.32943 7.875 3.30543 7.8825 3.29043 7.8975C3.27643 7.9125 3.26893 7.9375 3.26793 7.9725C3.26493 8.1205 3.26343 8.263 3.26343 8.4C3.26343 8.537 3.26493 8.68 3.26793 8.829C3.26893 8.864 3.27693 8.889 3.29193 8.904C3.30693 8.919 3.33043 8.9265 3.36243 8.9265C3.39843 8.9265 3.42443 8.919 3.44043 8.904C3.45643 8.889 3.46493 8.864 3.46593 8.829C3.46693 8.788 3.46693 8.7445 3.46593 8.6985C3.46593 8.6525 3.46543 8.609 3.46443 8.568H3.56493C3.56593 8.61 3.56643 8.651 3.56643 8.691C3.56643 8.731 3.56593 8.772 3.56493 8.814C3.56293 8.884 3.54643 8.9345 3.51543 8.9655C3.48443 8.9955 3.43343 9.0105 3.36243 9.0105ZM3.69473 9V7.8H3.79373V9H3.69473ZM3.90179 9L4.03079 7.8H4.21679L4.34429 9H4.24229L4.21079 8.652H4.03529L4.00379 9H3.90179ZM4.04429 8.562H4.20179L4.17779 8.2995L4.14479 7.89H4.10279L4.06829 8.301L4.04429 8.562ZM4.44327 9V7.8H4.62177L4.68627 8.1795L4.79877 8.91H4.83027L4.81527 8.2215L4.80777 7.8H4.90527V9H4.72227L4.65177 8.5695L4.55127 7.89H4.51977L4.53327 8.547L4.54077 9H4.44327Z" fill="#292929"/>
<defs>
<linearGradient id="paint0_linear" x1="3" y1="10" x2="3" y2="9.51253e-08" gradientUnits="userSpaceOnUse">
<stop stop-color="white" stop-opacity="0"/>
<stop offset="1" stop-color="white"/>
</linearGradient>
</defs>
</svg>
