<svg width="6" height="10" viewBox="0 0 6 10" fill="none" xmlns="http://www.w3.org/2000/svg">
<rect width="6" height="10" fill="#666666"/>
<path d="M3 5L1.26795 2.75L4.73205 2.75L3 5Z" fill="#292929"/>
<rect x="2.25" y="0.5" width="1.5" height="3" fill="white"/>
<path d="M3.00457 9.021C2.86257 9.021 2.75957 8.991 2.69557 8.931C2.63357 8.869 2.60057 8.767 2.59657 8.625C2.59257 8.545 2.59057 8.468 2.59057 8.394C2.59057 8.32 2.59257 8.245 2.59657 8.169H2.79457C2.79057 8.247 2.78857 8.328 2.78857 8.412C2.78857 8.496 2.79057 8.574 2.79457 8.646C2.79857 8.718 2.81557 8.77 2.84557 8.802C2.87757 8.834 2.92857 8.85 2.99857 8.85C3.06657 8.85 3.11557 8.834 3.14557 8.802C3.17757 8.77 3.19457 8.718 3.19657 8.646C3.20457 8.52 3.20857 8.399 3.20857 8.283C3.20857 8.165 3.20557 8.041 3.19957 7.911C3.19557 7.779 3.13557 7.713 3.01957 7.713C2.95557 7.713 2.90557 7.731 2.86957 7.767C2.83357 7.803 2.81457 7.852 2.81257 7.914H2.62057V6.6H3.38557V6.78H2.82157V7.668H2.86657C2.88257 7.634 2.91057 7.605 2.95057 7.581C2.99257 7.555 3.04157 7.542 3.09757 7.542C3.19757 7.542 3.27157 7.573 3.31957 7.635C3.36757 7.697 3.39457 7.787 3.40057 7.905C3.40457 8.039 3.40557 8.164 3.40357 8.28C3.40357 8.394 3.40157 8.509 3.39757 8.625C3.38757 8.767 3.35257 8.869 3.29257 8.931C3.23457 8.991 3.13857 9.021 3.00457 9.021Z" fill="white"/>
</svg>
