<svg width="6" height="10" viewBox="0 0 6 10" fill="none" xmlns="http://www.w3.org/2000/svg">
<rect width="6" height="10" fill="#666666"/>
<path d="M3.01643 9.021C2.87843 9.021 2.77843 8.991 2.71643 8.931C2.65643 8.869 2.62543 8.768 2.62343 8.628C2.62343 8.596 2.62343 8.555 2.62343 8.505C2.62343 8.455 2.62343 8.405 2.62343 8.355C2.62343 8.305 2.62443 8.263 2.62643 8.229H2.82443C2.82243 8.299 2.82143 8.37 2.82143 8.442C2.82143 8.512 2.82243 8.584 2.82443 8.658C2.82643 8.724 2.84143 8.773 2.86943 8.805C2.89743 8.837 2.94543 8.853 3.01343 8.853C3.07543 8.853 3.12043 8.838 3.14843 8.808C3.17843 8.776 3.19443 8.726 3.19643 8.658C3.19843 8.55 3.20043 8.435 3.20243 8.313C3.20443 8.191 3.20543 8.065 3.20543 7.935H3.16343C3.14543 7.971 3.11443 8.001 3.07043 8.025C3.02843 8.049 2.97943 8.061 2.92343 8.061C2.82743 8.061 2.74943 8.032 2.68943 7.974C2.63143 7.916 2.60243 7.821 2.60243 7.689C2.60043 7.617 2.59843 7.536 2.59643 7.446C2.59643 7.354 2.59643 7.266 2.59643 7.182C2.59843 7.096 2.60043 7.027 2.60243 6.975C2.60643 6.835 2.63943 6.735 2.70143 6.675C2.76543 6.613 2.86743 6.582 3.00743 6.582C3.14343 6.582 3.24143 6.613 3.30143 6.675C3.36143 6.735 3.39243 6.835 3.39443 6.975C3.40043 7.255 3.40243 7.534 3.40043 7.812C3.40043 8.09 3.39843 8.362 3.39443 8.628C3.39243 8.768 3.36143 8.869 3.30143 8.931C3.24143 8.991 3.14643 9.021 3.01643 9.021ZM2.98643 7.89C3.04843 7.89 3.09843 7.875 3.13643 7.845C3.17643 7.815 3.19943 7.772 3.20543 7.716C3.20543 7.588 3.20443 7.46 3.20243 7.332C3.20043 7.204 3.19843 7.075 3.19643 6.945C3.19243 6.815 3.12943 6.75 3.00743 6.75C2.87143 6.75 2.80243 6.815 2.80043 6.945C2.80043 6.979 2.80043 7.03 2.80043 7.098C2.80043 7.164 2.79943 7.236 2.79743 7.314C2.79743 7.392 2.79743 7.466 2.79743 7.536C2.79743 7.604 2.79843 7.657 2.80043 7.695C2.80243 7.825 2.86443 7.89 2.98643 7.89Z" fill="white"/>
<rect x="3.5" y="5.5" width="1" height="3" transform="rotate(180 3.5 5.5)" fill="#292929"/>
<path d="M3 0.5L3.33761 1.41239L4.25 1.75L3.33761 2.08761L3 3L2.66239 2.08761L1.75 1.75L2.66239 1.41239L3 0.5Z" fill="white"/>
</svg>
